<svg xmlns="http://www.w3.org/2000/svg" viewBox="0 0 600 600"><path d="m205 428h-115v-263h118c52 0 103 17 103 76 0 36-19 59-48 67 21 11 36 26 36 56 0 47-32 64-94 64m223-67c-57 0-97-42-97-101 0-62 38-102 97-102 46 0 77 25 89 65h-46c-5-13-23-25-42-25-31 0-48 18-48 49h138c3 35-4 59-19 78-14 21-39 36-72 36m-218-152h-62v73h63c26 0 42-12 42-38 0-25-18-35-43-35m258 71h-86c0 24 17 41 43 41 27 0 39-16 43-41m-264 104c23 0 39-7 39-31 0-21-13-31-38-31h-57v62h56m166 26v-25h107v25h-107m-70 190c145 0 206 0 253-47s47-108 47-253 0-206-47-253-108-47-253-47-206 0-253 47-47 108-47 253 0 206 47 253 108 47 253 47" transform="matrix(1 0 0-1 0 600)"/></svg>