<svg xmlns="http://www.w3.org/2000/svg" viewBox="0 0 600 600"><path d="m225 0v81c-83-18-101 40-101 40-14 35-33 44-33 44-27 19 2 18 2 18 30-2 46-31 46-31 26-45 70-32 87-25 3 20 10 33 19 41-67 7-137 33-137 148 0 33 12 59 31 80-3 8-13 38 3 80 0 0 25 8 83-31 47 13 102 13 150 0 57 39 82 31 82 31 17-42 7-72 3-80 20-21 31-47 31-80 0-115-70-141-137-148 11-9 21-28 21-56v-112c93 1 141 10 178 47 47 47 47 108 47 253s0 206-47 253-108 47-253 47-206 0-253-47-47-108-47-253 0-206 47-253c37-37 83-45 178-47" transform="matrix(1 0 0-1 0 600)"/></svg>