<svg xmlns="http://www.w3.org/2000/svg" viewBox="0 0 600 600"><path d="m212 84c109 0 148 62 148 115 0 56-44 74-72 97-17 14-14 28 1 40 25 19 47 40 47 82 0 32-15 52-27 65h21l34 33h-127c-84 0-123-56-123-108 0-49 40-95 106-91-4-18 0-34 9-44-77-6-139-41-139-98 0-44 38-91 122-91m-62 103c0 49 61 61 107 59 41-30 55-44 55-66 0-30-27-60-73-60-58 0-89 34-89 67m360 113v30h-60v60h-30v-60h-60v-30h60v-60h30v60h60m-234 94c0-47-41-48-43-48-40 0-59 53-59 89s21 49 40 49c43 0 62-60 62-90m24 206c145 0 206 0 253-47s47-108 47-253 0-206-47-253-108-47-253-47-206 0-253 47-47 108-47 253 0 206 47 253 108 47 253 47" transform="matrix(1 0 0-1 0 600)"/></svg>