<svg xmlns="http://www.w3.org/2000/svg" viewBox="0 0 600 600"><path d="m300 600c145 0 206 0 253-47s47-108 47-253 0-206-47-253-108-47-253-47-206 0-253 47-47 108-47 253 0 206 47 253 108 47 253 47m30-426c107 0 156 85 156 163 0 99-83 179-186 179s-186-80-186-179c0-31 8-61 24-88 20-33 73-7 52 30-10 18-16 38-16 58 0 66 57 119 126 119s126-53 126-119c0-49-25-102-95-102-22 0-40 18-40 41 0 29 26 49 26 90 0 31-20 39-42 39s-50-15-50-67c0-26 6-44 6-44l-55-167c-13-39 48-66 64-14l27 89c16-18 39-28 63-28" transform="matrix(1 0 0-1 0 600)"/></svg>