<?xml version="1.0" standalone="no"?>
<!DOCTYPE svg PUBLIC "-//W3C//DTD SVG 1.1//EN" "http://www.w3.org/Graphics/SVG/1.1/DTD/svg11.dtd" >
<svg xmlns="http://www.w3.org/2000/svg" xmlns:xlink="http://www.w3.org/1999/xlink" version="1.1">
<metadata></metadata>
<defs>
<font id="gidoleregular" horiz-adv-x="489" >
<font-face units-per-em="1000" ascent="800" descent="-200" />
<missing-glyph horiz-adv-x="250" />
<glyph unicode="&#xd;" horiz-adv-x="333" />
<glyph unicode=" "  horiz-adv-x="250" />
<glyph unicode="&#x09;" horiz-adv-x="250" />
<glyph unicode="&#xa0;" horiz-adv-x="250" />
<glyph unicode="!" horiz-adv-x="259" d="M102 180l-10 243v244h74v-244l-10 -243h-54zM130 96q22 0 36.5 -14t14.5 -37t-14.5 -37t-36.5 -14t-36.5 14t-14.5 37t14.5 37t36.5 14z" />
<glyph unicode="&#x22;" horiz-adv-x="311" d="M50 667h72l-5 -211h-61zM190 667h72l-5 -211h-61z" />
<glyph unicode="#" horiz-adv-x="609" d="M398 420h-150l-36 -173h150zM236 667h64l-40 -190h150l40 190h64l-40 -190h81v-57h-93l-36 -173h94v-57h-106l-40 -190h-64l40 190h-150l-40 -190h-64l40 190h-81v57h93l36 173h-94v57h106z" />
<glyph unicode="$" horiz-adv-x="530" d="M283 66q52 8 80.5 39t28.5 81q0 88 -109 116v-236zM229 601q-45 -6 -72.5 -34.5t-27.5 -78.5q0 -76 100 -103v216zM283 672q102 -7 163 -70l-48 -52q-43 43 -115 52v-229q183 -41 183 -187q0 -81 -49 -132t-134 -59v-65h-54v65q-108 5 -176 70l47 53q52 -46 129 -53v248 q-76 16 -125 58.5t-49 116.5q0 82 49 129t125 55v65h54v-65z" />
<glyph unicode="%" horiz-adv-x="711" d="M531 297q49 0 85 -33.5t36 -96.5v-43q0 -63 -36 -96.5t-85 -33.5t-85 33.5t-36 96.5v43q0 63 36 96.5t85 33.5zM531 237q-23 0 -41 -17.5t-18 -50.5v-47q0 -33 18 -50.5t41 -17.5t41 17.5t18 50.5v47q0 33 -18 50.5t-41 17.5zM496 667h74l-360 -667h-74zM181 673 q49 0 85 -33.5t36 -96.5v-43q0 -63 -36 -96.5t-85 -33.5t-85 33.5t-36 96.5v43q0 63 36 96.5t85 33.5zM181 613q-23 0 -41 -17.5t-18 -50.5v-47q0 -33 18 -50.5t41 -17.5t41 17.5t18 50.5v47q0 33 -18 50.5t-41 17.5z" />
<glyph unicode="&#x26;" horiz-adv-x="601" d="M255 62q81 0 134 68v180h-134q-64 0 -93.5 -36t-29.5 -88q0 -55 32 -89.5t91 -34.5zM255 673q111 0 180 -65l-42 -54q-58 51 -138 51q-54 0 -84 -32t-30 -83t30 -82.5t84 -31.5h134v95h66v-95h92v-66h-92v-172q0 -68 82 -68h10v-70h-10q-25 0 -41.5 2t-42 15t-40.5 38 q-48 -61 -158 -61q-91 0 -143 54.5t-52 137.5q0 53 23.5 94t62.5 64q-34 22 -55.5 59.5t-21.5 86.5q0 80 49.5 131.5t136.5 51.5z" />
<glyph unicode="'" horiz-adv-x="171" d="M50 667h72l-5 -211h-61z" />
<glyph unicode="(" horiz-adv-x="314" d="M275 -191q-77 0 -136 108t-59 282v207q0 175 59 283t136 108v-58q-54 0 -93.5 -93t-39.5 -240v-207q0 -142 42 -237t91 -95v-58z" />
<glyph unicode=")" horiz-adv-x="314" d="M40 -191v58q49 0 91 95t42 237v207q0 147 -39.5 240t-93.5 93v58q77 0 136 -108t59 -283v-207q0 -174 -59 -282t-136 -108z" />
<glyph unicode="*" horiz-adv-x="351" d="M150 667h52l-3 -91l87 31l16 -50l-88 -25l56 -72l-42 -31l-52 75l-52 -75l-41 30l55 73l-88 26l16 50l87 -32z" />
<glyph unicode="+" horiz-adv-x="519" d="M80 279h150v152h60v-152h150v-56h-150v-152h-60v152h-150v56z" />
<glyph unicode="," horiz-adv-x="201" d="M101 96q21 0 36 -13t15 -38q0 -19 -9 -45l-45 -121h-45l29 118q-32 11 -32 48q0 25 15 38t36 13z" />
<glyph unicode="-" horiz-adv-x="369" d="M80 284h210v-66h-210v66z" />
<glyph unicode="." horiz-adv-x="201" d="M101 96q23 0 37 -14t14 -37t-14 -37t-37 -14t-37 14t-14 37t14 37t37 14z" />
<glyph unicode="/" horiz-adv-x="321" d="M250 797h62l-240 -927h-62z" />
<glyph unicode="0" horiz-adv-x="519" d="M260 673q78 0 129 -41.5t63 -113.5q3 -17 3 -50v-269q0 -33 -3 -50q-12 -72 -63 -113.5t-129 -41.5t-129 41.5t-63 113.5q-3 17 -3 50v269q0 33 3 50q12 72 63 113.5t129 41.5zM260 64q45 0 75.5 22.5t40.5 62.5q5 20 5 50v269q0 30 -5 50q-10 40 -40.5 62.5t-75.5 22.5 t-75.5 -22.5t-40.5 -62.5q-5 -20 -5 -50v-269q0 -30 5 -50q10 -40 40.5 -62.5t75.5 -22.5z" />
<glyph unicode="1" horiz-adv-x="320" d="M172 667h64v-667h-74v582l-74 -39l-33 65z" />
<glyph unicode="2" horiz-adv-x="514" d="M240 603q-79 0 -136 -50l-44 55q69 65 180 65q87 0 136.5 -51.5t49.5 -131.5q0 -39 -12.5 -75t-51.5 -86l-198 -259h291v-70h-395v50l248 324q44 59 44 116q0 50 -29 81.5t-83 31.5z" />
<glyph unicode="3" horiz-adv-x="510" d="M241 -6q-120 0 -190 67l48 52q50 -49 142 -49q59 0 90 33.5t31 88.5q0 51 -28.5 86.5t-92.5 35.5h-68v70h68q53 0 82.5 30.5t29.5 81.5q0 50 -29 81.5t-83 31.5q-79 0 -136 -50l-44 55q69 65 180 65q87 0 136.5 -51.5t49.5 -131.5q0 -49 -21.5 -86.5t-55.5 -59.5 q39 -23 62.5 -64t23.5 -94q0 -83 -52 -137.5t-143 -54.5z" />
<glyph unicode="4" horiz-adv-x="529" d="M261 667h74l-193 -434h206v170h70v-170h57v-68h-57v-165h-70v165h-288v50z" />
<glyph unicode="5" horiz-adv-x="511" d="M252 -6q-120 0 -190 67l48 52q50 -49 142 -49q121 0 121 141q0 64 -33 95.5t-88 31.5q-52 0 -97 -27l-68 29v333h319v-70h-247v-218q42 23 93 23q86 0 140.5 -49.5t54.5 -147.5q0 -109 -54 -160t-141 -51z" />
<glyph unicode="6" horiz-adv-x="509" d="M194 406q24 10 61 10q87 0 141 -51t54 -160t-54 -160t-141 -51t-141 51t-54 160q0 49 12 91.5t49 116.5l127 254h77zM376 205q0 141 -121 141t-121 -141t121 -141t121 141z" />
<glyph unicode="7" horiz-adv-x="504" d="M55 667h390v-50l-262 -617h-79l253 597h-302v70z" />
<glyph unicode="8" horiz-adv-x="509" d="M255 673q87 0 136.5 -51.5t49.5 -131.5q0 -49 -21.5 -86.5t-55.5 -59.5q39 -23 62.5 -64t23.5 -94q0 -83 -52 -137.5t-143 -54.5t-143 54.5t-52 137.5q0 53 23.5 94t62.5 64q-34 22 -55.5 59.5t-21.5 86.5q0 80 49.5 131.5t136.5 51.5zM255 605q-54 0 -84 -32t-30 -83 t30 -82.5t84 -31.5t84 31.5t30 82.5t-30 83t-84 32zM255 310q-64 0 -93.5 -36t-29.5 -88q0 -55 32 -89.5t91 -34.5t91 34.5t32 89.5q0 52 -29.5 88t-93.5 36z" />
<glyph unicode="9" horiz-adv-x="509" d="M316 261q-24 -10 -61 -10q-87 0 -141 51t-54 160t54 160t141 51t141 -51t54 -160q0 -49 -12 -91.5t-49 -116.5l-127 -254h-77zM134 462q0 -141 121 -141t121 141t-121 141t-121 -141z" />
<glyph unicode=":" horiz-adv-x="201" d="M101 385q23 0 37 -14.5t14 -36.5t-14 -36.5t-37 -14.5t-37 14.5t-14 36.5t14 36.5t37 14.5zM101 96q23 0 37 -14t14 -37t-14 -37t-37 -14t-37 14t-14 37t14 37t37 14z" />
<glyph unicode=";" horiz-adv-x="201" d="M100 385q22 0 36.5 -14.5t14.5 -36.5t-14.5 -36.5t-36.5 -14.5t-36 14t-14 37t14 37t36 14zM101 96q21 0 36 -13t15 -38q0 -19 -9 -45l-45 -121h-45l29 118q-32 11 -32 48q0 25 15 38t36 13z" />
<glyph unicode="&#x3c;" horiz-adv-x="519" d="M80 284l360 170v-66l-308 -137l308 -137v-66l-360 170v66z" />
<glyph unicode="=" horiz-adv-x="519" d="M80 212h360v-56h-360v56zM80 346h360v-56h-360v56z" />
<glyph unicode="&#x3e;" horiz-adv-x="519" d="M80 454l360 -170v-66l-360 -170v66l308 137l-308 137v66z" />
<glyph unicode="?" horiz-adv-x="467" d="M223 96q23 0 37 -14t14 -37t-14 -37t-37 -14t-37 14t-14 37t14 37t37 14zM219 673q87 0 140.5 -48.5t53.5 -134.5q0 -103 -82 -154q-41 -26 -59 -49.5t-19 -60.5l-2 -46h-58q-2 37 -2 57q0 93 90 148q58 35 58 105q0 54 -31.5 83.5t-88.5 29.5q-79 0 -136 -50l-44 55 q69 65 180 65z" />
<glyph unicode="@" horiz-adv-x="863" d="M789 45q0 -50 -7 -79q-34 -156 -228 -156h-244q-193 0 -228 155q-7 29 -7 80v202q0 51 7 80q35 155 228 155h120q138 0 167 -130q6 -27 6 -91v-261h-68v52q-56 -58 -133 -58q-67 0 -112 41.5t-45 107.5q0 77 56.5 114t154.5 37q46 0 79 -5q0 37 -8 63q-22 66 -97 66h-120 q-127 0 -157 -91q-10 -31 -10 -80v-202q0 -49 10 -80q30 -91 157 -91h244q127 0 157 91q10 30 10 80v261q0 162 -76.5 232t-228.5 70h-76v66h76q182 0 277.5 -86t95.5 -282v-261zM535 229q-35 4 -71 4q-151 0 -151 -90q0 -37 26.5 -60.5t70.5 -23.5q40 0 72.5 22.5 t45.5 67.5q7 24 7 80z" />
<glyph unicode="A" horiz-adv-x="608" d="M305 571l-115 -336h229zM273 667h64l237 -667h-75l-57 165h-274l-57 -165h-76z" />
<glyph unicode="B" horiz-adv-x="539" d="M280 598h-131v-221h131q53 0 82.5 29.5t29.5 80.5q0 50 -29 80.5t-83 30.5zM280 667q88 0 137 -50t49 -130q0 -95 -77 -143q41 -24 68.5 -64t27.5 -91q0 -84 -53.5 -136.5t-151.5 -52.5h-205v667h205zM280 309h-131v-240h131q65 0 98 32.5t33 87.5q0 50 -33 85t-98 35z " />
<glyph unicode="C" horiz-adv-x="539" d="M290 673q121 0 185 -71l-48 -52q-49 53 -137 53q-113 0 -141 -85q-10 -31 -10 -80v-209q0 -49 10 -80q28 -85 141 -85q92 0 142 53l48 -52q-66 -71 -190 -71q-183 0 -218 155q-7 29 -7 80v209q0 51 7 80q35 155 218 155z" />
<glyph unicode="D" horiz-adv-x="569" d="M431 468q0 33 -5 50q-21 79 -126 79h-151v-527h151q105 0 126 79q5 17 5 50v269zM75 667h225q86 0 138 -40.5t64 -108.5q3 -18 3 -50v-269q0 -32 -3 -50q-12 -68 -64 -108.5t-138 -40.5h-225v667z" />
<glyph unicode="E" horiz-adv-x="500" d="M75 667h359v-70h-287v-219h237v-70h-235v-238h286v-70h-360v667z" />
<glyph unicode="F" horiz-adv-x="493" d="M75 667h359v-70h-285v-219h235v-70h-235v-308h-74v667z" />
<glyph unicode="G" horiz-adv-x="579" d="M290 673q121 0 185 -71l-48 -52q-49 53 -137 53q-113 0 -141 -85q-10 -31 -10 -80v-209q0 -49 10 -80q28 -85 141 -85t141 85q10 30 10 80v58h-138v70h212v-128q0 -50 -7 -79q-34 -156 -218 -156q-183 0 -218 155q-7 29 -7 80v209q0 51 7 80q35 155 218 155z" />
<glyph unicode="H" horiz-adv-x="589" d="M75 667h74v-289h292v289h74v-667h-74v308h-292v-308h-74v667z" />
<glyph unicode="I" horiz-adv-x="223" d="M149 667v-667h-74v667h74z" />
<glyph unicode="J" horiz-adv-x="465" d="M396 199q0 -33 -3 -50q-12 -72 -63 -113.5t-129 -41.5q-116 0 -166 83l55 44q39 -57 111 -57q45 0 75.5 22.5t40.5 62.5q5 20 5 50v468h74v-468z" />
<glyph unicode="K" horiz-adv-x="573" d="M149 0h-74v667h74v-343l281 343h86l-258 -309l271 -358h-87l-232 307l-61 -71v-236z" />
<glyph unicode="L" horiz-adv-x="509" d="M75 667h74v-597h306v-70h-380v667z" />
<glyph unicode="M" horiz-adv-x="719" d="M75 667h65l220 -424l219 424h66v-667h-74v513l-179 -348h-64l-179 346v-511h-74v667z" />
<glyph unicode="N" horiz-adv-x="589" d="M75 667h65l301 -520v520h74v-667h-65l-301 520v-520h-74v667z" />
<glyph unicode="O" horiz-adv-x="599" d="M535 438v-209q0 -50 -7 -79q-34 -156 -228 -156q-193 0 -228 155q-7 29 -7 80v209q0 51 7 80q35 155 228 155q194 0 228 -156q7 -29 7 -79zM461 438q0 50 -10 80q-28 85 -151 85t-151 -85q-10 -31 -10 -80v-209q0 -49 10 -80q28 -85 151 -85t151 85q10 30 10 80v209z" />
<glyph unicode="P" horiz-adv-x="521" d="M262 667q94 0 149.5 -51t55.5 -154t-55.5 -154t-149.5 -51h-114v-257h-73v667h187zM262 327q131 0 131 135t-131 135h-113v-270h113z" />
<glyph unicode="Q" horiz-adv-x="599" d="M461 438q0 50 -10 80q-28 85 -151 85t-151 -85q-10 -31 -10 -80v-209q0 -49 10 -80q28 -85 151 -85t151 85q10 30 10 80v209zM300 673q194 0 228 -156q7 -29 7 -79v-209q0 -50 -7 -79q-18 -82 -81 -122l97 -64l-37 -59l-143 95q-40 -6 -64 -6q-193 0 -228 155 q-7 29 -7 80v209q0 51 7 80q35 155 228 155z" />
<glyph unicode="R" horiz-adv-x="546" d="M272 327q131 0 131 135t-131 135h-123v-270h123zM272 667q94 0 149.5 -51t55.5 -154q0 -141 -106 -187l116 -275h-78l-109 258q-9 -1 -28 -1h-124v-257h-73v667h197z" />
<glyph unicode="S" horiz-adv-x="530" d="M253 -6q-126 0 -200 71l47 53q60 -54 153 -54q64 0 101.5 32.5t37.5 89.5q0 99 -143 123q-83 14 -138.5 57t-55.5 122q0 90 58 137.5t143 47.5q122 0 190 -71l-48 -52q-53 53 -142 53q-56 0 -91.5 -29t-35.5 -86q0 -86 134 -111q203 -38 203 -191q0 -88 -58 -140 t-155 -52z" />
<glyph unicode="T" horiz-adv-x="559" d="M55 667h450v-70h-188v-597h-74v597h-188v70z" />
<glyph unicode="U" horiz-adv-x="569" d="M500 667v-438q0 -50 -7 -79q-16 -76 -70 -116t-138 -40t-137.5 40t-70.5 115q-7 29 -7 80v438h74v-438q0 -49 10 -80q28 -85 131 -85t131 85q10 30 10 80v438h74z" />
<glyph unicode="V" horiz-adv-x="608" d="M35 667h77l193 -561l193 561h76l-237 -667h-64z" />
<glyph unicode="W" horiz-adv-x="801" d="M35 667h75l142 -564l118 399h64l117 -398l141 563h75l-183 -667h-65l-117 390l-117 -390h-66z" />
<glyph unicode="X" horiz-adv-x="566" d="M46 667h83l155 -276l158 276h80l-191 -333l191 -334h-81l-157 277l-158 -277h-81l193 334z" />
<glyph unicode="Y" horiz-adv-x="540" d="M35 667h81l154 -309l157 309h79l-199 -390v-277h-74v277z" />
<glyph unicode="Z" horiz-adv-x="539" d="M70 667h400v-50l-323 -547h333v-70h-420v50l322 547h-312v70z" />
<glyph unicode="[" horiz-adv-x="268" d="M85 797h154v-57h-94v-873h94v-57h-154v987z" />
<glyph unicode="\" horiz-adv-x="321" d="M10 797h62l240 -927h-62z" />
<glyph unicode="]" horiz-adv-x="268" d="M184 797v-987h-154v57h94v873h-94v57h154z" />
<glyph unicode="^" horiz-adv-x="367" d="M145 667h78l95 -121h-66l-68 77l-68 -77h-66z" />
<glyph unicode="_" horiz-adv-x="439" d="M35 0h370v-66h-370v66z" />
<glyph unicode="`" horiz-adv-x="252" d="M50 667h78l75 -121h-66z" />
<glyph unicode="a" horiz-adv-x="452" d="M325 229q-35 4 -71 4q-151 0 -151 -90q0 -37 26.5 -60.5t70.5 -23.5q41 0 73 20.5t45 63.5q7 24 7 67v19zM218 483q139 0 168 -130q7 -28 7 -95v-258h-68v52q-56 -58 -133 -58q-67 0 -112 41.5t-45 107.5q0 77 56.5 114t154.5 37q46 0 79 -5q0 37 -8 63q-22 67 -99 67 q-69 0 -121 -32l-34 55q64 41 155 41z" />
<glyph unicode="b" d="M250 417q-76 0 -103 -63q-12 -28 -12 -96v-39q0 -68 12 -96q27 -63 103 -63q77 0 104 64q11 27 11 95v39q0 68 -11 95q-27 64 -104 64zM65 667h70v-235q42 51 125 51q63 0 107 -34.5t60 -95.5q8 -29 8 -95v-39q0 -66 -8 -95q-16 -61 -60 -95.5t-107 -34.5q-83 0 -125 51 v-45h-70v667z" />
<glyph unicode="c" horiz-adv-x="427" d="M245 483q81 0 133 -41l-36 -56q-41 31 -97 31q-78 0 -107 -64q-13 -29 -13 -95v-39q0 -66 13 -95q29 -64 107 -64q61 0 102 35l36 -56q-53 -45 -138 -45q-71 0 -118 34.5t-64 95.5q-8 29 -8 95v39q0 66 8 95q17 61 64 95.5t118 34.5z" />
<glyph unicode="d" d="M240 417q-77 0 -104 -64q-11 -27 -11 -95v-39q0 -68 11 -95q27 -64 104 -64q76 0 103 63q12 28 12 96v39q0 68 -12 96q-27 63 -103 63zM425 667v-667h-70v45q-42 -51 -125 -51q-63 0 -107 34.5t-60 95.5q-8 29 -8 95v39q0 66 8 95q16 61 60 95.5t107 34.5q83 0 125 -51 v235h70z" />
<glyph unicode="e" d="M123 282h244q0 44 -13 71q-30 66 -109 66t-109 -66q-13 -27 -13 -71zM250 58q76 0 128 35l35 -54q-63 -45 -163 -45q-74 0 -122 34t-65 96q-8 29 -8 95v39q0 66 8 95q17 61 64 95.5t118 34.5t118 -34.5t64 -95.5q8 -29 8 -95v-40h-312q0 -65 13 -94q30 -66 114 -66z" />
<glyph unicode="f" horiz-adv-x="379" d="M125 511q0 38 7 61q14 47 52 74t93 27q35 0 63 -11l-16 -62q-21 8 -47 8q-53 0 -73 -42q-9 -18 -9 -55v-34h110v-61h-110v-416h-70v416h-80v61h80v34z" />
<glyph unicode="g" d="M240 417q-77 0 -104 -64q-11 -27 -11 -95v-39q0 -68 11 -95q27 -64 104 -64q76 0 103 63q12 28 12 96v39q0 68 -12 96q-27 63 -103 63zM235 -125q78 0 107 64q13 29 13 95v11q-42 -51 -125 -51q-63 0 -107 34.5t-60 95.5q-8 29 -8 95v39q0 66 8 95q16 61 60 95.5 t107 34.5q83 0 125 -51v45h70v-443q0 -66 -8 -95q-17 -61 -64 -95.5t-118 -34.5q-100 0 -163 45l36 55q50 -34 127 -34z" />
<glyph unicode="h" horiz-adv-x="484" d="M65 667h70v-235q41 51 120 51q63 0 105.5 -34.5t57.5 -95.5q7 -29 7 -95v-258h-70v258q0 68 -10 95q-24 64 -100 64t-100 -64q-10 -27 -10 -95v-258h-70v667z" />
<glyph unicode="i" horiz-adv-x="211" d="M105 644q21 0 34.5 -13t13.5 -34t-13.5 -34t-34.5 -13q-20 0 -33 13t-13 34t13 34t33 13zM71 477h70v-477h-70v477z" />
<glyph unicode="j" horiz-adv-x="208" d="M103 644q21 0 34 -13t13 -34t-13 -34t-34 -13q-20 0 -33.5 13t-13.5 34t13.5 34t33.5 13zM138 -47q0 -32 -6 -54q-11 -42 -44.5 -66t-81.5 -24q-50 0 -86 27l36 56q23 -17 50 -17q38 0 54 32q8 16 8 46v524h70v-524z" />
<glyph unicode="k" horiz-adv-x="458" d="M65 667h70v-439l187 249h82l-167 -217l182 -260h-81l-147 212l-56 -75v-137h-70v667z" />
<glyph unicode="l" horiz-adv-x="199" d="M65 667h70v-667h-70v667z" />
<glyph unicode="m" horiz-adv-x="754" d="M65 477h70v-44q39 50 115 50q89 0 130 -70q49 70 150 70q63 0 103.5 -34t54.5 -96q7 -28 7 -95v-258h-70v258q0 68 -9 95q-22 64 -96 64t-96 -64q-9 -27 -9 -95v-258h-70v258q0 68 -9 95q-22 64 -96 64t-96 -64q-9 -27 -9 -95v-258h-70v477z" />
<glyph unicode="n" horiz-adv-x="484" d="M65 477h70v-45q40 51 120 51q63 0 105.5 -34.5t57.5 -95.5q7 -29 7 -95v-258h-70v258q0 68 -10 95q-26 64 -100 64t-100 -64q-10 -27 -10 -95v-258h-70v477z" />
<glyph unicode="o" d="M435 258v-39q0 -66 -8 -95q-17 -61 -64 -95.5t-118 -34.5t-118 34.5t-64 95.5q-8 29 -8 95v39q0 66 8 95q17 61 64 95.5t118 34.5t118 -34.5t64 -95.5q8 -29 8 -95zM365 219v39q0 66 -13 95q-29 64 -107 64t-107 -64q-13 -29 -13 -95v-39q0 -66 13 -95q29 -64 107 -64 t107 64q13 29 13 95z" />
<glyph unicode="p" d="M250 417q-76 0 -103 -63q-12 -28 -12 -96v-39q0 -68 12 -96q27 -63 103 -63q77 0 104 64q11 27 11 95v39q0 68 -11 95q-27 64 -104 64zM65 477h70v-45q42 51 125 51q63 0 107 -34.5t60 -95.5q8 -29 8 -95v-39q0 -66 -8 -95q-16 -61 -60 -95.5t-107 -34.5q-83 0 -125 51 v-230h-70v662z" />
<glyph unicode="q" d="M240 417q-77 0 -104 -64q-11 -27 -11 -95v-39q0 -68 11 -95q27 -64 104 -64q76 0 103 63q12 28 12 96v39q0 68 -12 96q-27 63 -103 63zM425 477v-662h-70v230q-42 -51 -125 -51q-63 0 -107 34.5t-60 95.5q-8 29 -8 95v39q0 66 8 95q16 61 60 95.5t107 34.5q83 0 125 -51 v45h70z" />
<glyph unicode="r" horiz-adv-x="367" d="M313 412q-20 5 -53 5q-46 0 -77.5 -23.5t-42.5 -65.5q-5 -17 -5 -60v-268h-70v477h70v-60q48 66 135 66q28 0 53 -6z" />
<glyph unicode="s" horiz-adv-x="432" d="M368 446l-32 -59q-50 30 -126 30q-93 0 -93 -68q0 -30 22.5 -43.5t76.5 -23.5q167 -28 167 -145q0 -72 -52.5 -107.5t-120.5 -35.5q-103 0 -170 45l32 59q52 -38 138 -38q47 0 75 19t28 58q0 36 -27 53.5t-82 27.5q-23 4 -40 8t-40.5 14t-39 23t-26.5 35.5t-11 50.5 q0 68 50 101t113 33q94 0 158 -37z" />
<glyph unicode="t" horiz-adv-x="377" d="M257 60q27 0 50 17l36 -56q-36 -27 -86 -27q-48 0 -81.5 24t-44.5 66q-6 22 -6 54v277h-80v62h80v104h70v-104h110v-62h-110v-277q0 -30 8 -46q16 -32 54 -32z" />
<glyph unicode="u" horiz-adv-x="479" d="M130 477v-258q0 -66 11 -96q24 -63 99 -63t99 63q11 30 11 96v258h70v-258q0 -67 -7 -96q-15 -61 -59.5 -95t-113.5 -34t-113.5 34t-59.5 95q-7 29 -7 96v258h70z" />
<glyph unicode="v" horiz-adv-x="476" d="M30 477h74l135 -385l134 385h74l-178 -477h-61z" />
<glyph unicode="w" horiz-adv-x="719" d="M30 477h71l118 -374l111 374h60l112 -374l117 374h71l-158 -477h-60l-112 391l-111 -391h-60z" />
<glyph unicode="x" horiz-adv-x="443" d="M35 477h79l108 -191l110 191h77l-145 -239l145 -238h-79l-108 191l-110 -191h-77l145 238z" />
<glyph unicode="y" horiz-adv-x="476" d="M202 0l-172 477h74l135 -389l134 389h74l-238 -662h-74z" />
<glyph unicode="z" horiz-adv-x="439" d="M60 477h320v-50l-234 -361h234v-66h-320v50l234 361h-234v66z" />
<glyph unicode="{" horiz-adv-x="323" d="M284 797v-56h-14q-37 0 -52.5 -22.5t-15.5 -71.5v-214q0 -83 -59 -122q59 -43 59 -128v-224q0 -49 15.5 -71.5t52.5 -22.5h14v-56h-14q-130 0 -130 150v234q0 47 -20.5 71t-55.5 24h-4v50h4q76 0 76 85v224q0 150 130 150h14z" />
<glyph unicode="|" horiz-adv-x="231" d="M85 797h62v-982h-62v982z" />
<glyph unicode="}" horiz-adv-x="323" d="M40 797h14q130 0 130 -150v-224q0 -85 76 -85h4v-50h-4q-35 0 -55.5 -24t-20.5 -71v-234q0 -150 -130 -150h-14v56h14q37 0 52.5 22.5t15.5 71.5v224q0 85 59 128q-59 39 -59 122v214q0 49 -15.5 71.5t-52.5 22.5h-14v56z" />
<glyph unicode="~" horiz-adv-x="519" d="M100 209l-34 52q57 54 114 54q51 0 96 -35q40 -31 68 -31q32 0 76 44l34 -52q-58 -57 -114 -57q-45 0 -96 38q-35 27 -66 27q-38 0 -78 -40z" />
<glyph unicode="&#xa1;" horiz-adv-x="259" d="M102 302h54l10 -243v-244h-74v244zM130 488q22 0 36.5 -14t14.5 -37t-14.5 -37t-36.5 -14t-36.5 14t-14.5 37t14.5 37t36.5 14z" />
<glyph unicode="&#xa2;" horiz-adv-x="427" d="M220 415q-59 -11 -82 -62q-13 -29 -13 -95v-39q0 -66 13 -95q23 -51 82 -62v353zM220 563h50v-81q64 -6 108 -40l-36 -56q-29 23 -72 29v-353q45 6 77 33l36 -56q-44 -38 -113 -44v-81h-50v81q-60 6 -101 40t-56 89q-8 29 -8 95v39q0 66 8 95q15 55 56 89t101 40v81z" />
<glyph unicode="&#xa3;" horiz-adv-x="511" d="M122 468q0 33 3 50q12 72 57 113.5t115 41.5q96 0 146 -83l-55 -44q-25 35 -45.5 46t-45.5 11q-75 0 -96 -85q-5 -20 -5 -50v-21v-94h186v-61h-186v-222h256v-70h-256h-74h-62v70h62v222h-60v61h60v94v21z" />
<glyph unicode="&#xa4;" horiz-adv-x="625" d="M60 491l51 51l63 -63q57 40 139 40t139 -40l63 63l51 -51l-63 -63q42 -59 42 -139t-42 -139l63 -63l-51 -51l-63 63q-57 -40 -139 -40t-139 40l-63 -63l-51 51l63 63q-42 59 -42 139t42 139zM155 289q0 -76 42.5 -118t115.5 -42t115.5 42t42.5 118t-42.5 118t-115.5 42 t-115.5 -42t-42.5 -118z" />
<glyph unicode="&#xa5;" horiz-adv-x="550" d="M40 667h79l156 -321l159 321h77l-124 -243h78v-56h-108l-35 -69h133v-56h-143v-243h-74v243h-143v56h133l-35 69h-108v56h78z" />
<glyph unicode="&#xa6;" horiz-adv-x="231" d="M85 667h62v-263h-62v263zM85 264h62v-264h-62v264z" />
<glyph unicode="&#xa7;" horiz-adv-x="468" d="M161 422q-23 -21 -23 -69q0 -37 20.5 -53t78.5 -27q47 -9 78 -23q19 24 19 68q0 38 -25.5 57.5t-83.5 30.5q-38 7 -64 16zM231 673q89 0 158 -47l-38 -55q-50 37 -120 37q-42 0 -67.5 -18t-25.5 -49q0 -30 21 -45t78 -25q167 -32 167 -143q0 -67 -46 -103q46 -35 46 -95 q0 -64 -48 -100t-126 -36q-95 0 -165 53l42 53q52 -41 123 -41q104 0 104 71q0 31 -26 49t-83 29q-73 13 -115 43t-42 92q0 68 48 101q-48 35 -48 97q0 63 50.5 97.5t112.5 34.5z" />
<glyph unicode="&#xa8;" horiz-adv-x="373" d="M97 644q21 0 34 -13t13 -34t-13 -34t-34 -13t-34 13t-13 34t13 34t34 13zM277 644q21 0 34 -13t13 -34t-13 -34t-34 -13t-34 13t-13 34t13 34t34 13z" />
<glyph unicode="&#xa9;" horiz-adv-x="639" d="M319 543q78 0 120 -55l-47 -35q-20 29 -73 29q-75 0 -75 -79v-139q0 -79 75 -79q49 0 81 32l43 -35q-44 -58 -124 -58q-60 0 -99 34t-39 106v139q0 72 39 106t99 34zM320 673q118 0 186.5 -54.5t68.5 -172.5v-224q0 -118 -68.5 -173t-186.5 -55t-186.5 55t-68.5 173v224 q0 118 68.5 172.5t186.5 54.5zM320 613q-87 0 -139 -41.5t-52 -125.5v-224q0 -85 52 -126.5t139 -41.5t139 41.5t52 126.5v224q0 84 -52 125.5t-139 41.5z" />
<glyph unicode="&#xaa;" horiz-adv-x="355" d="M235 493q-34 2 -44 2q-100 0 -100 -53q0 -26 16.5 -42t45.5 -16q62 0 77 58q5 18 5 46v5zM166 676q99 0 120 -89q5 -20 5 -66v-187h-56v31q-37 -35 -87 -35q-48 0 -80.5 31t-32.5 81q0 53 40.5 78.5t109.5 25.5q25 0 50 -3q0 21 -5 40q-15 40 -64 40q-47 0 -81 -21l-4 -2 l-28 46l3 2q44 28 110 28z" />
<glyph unicode="&#xab;" horiz-adv-x="544" d="M393 437h72l-159 -187l159 -187h-72l-143 164v46zM223 437h72l-159 -187l159 -187h-72l-143 164v46z" />
<glyph unicode="&#xac;" horiz-adv-x="509" d="M80 279h350v-205h-60v149h-290v56z" />
<glyph unicode="&#xae;" horiz-adv-x="639" d="M320 613q-87 0 -139 -41.5t-52 -125.5v-224q0 -85 52 -126.5t139 -41.5t139 41.5t52 126.5v224q0 84 -52 125.5t-139 41.5zM320 673q118 0 186.5 -54.5t68.5 -172.5v-224q0 -118 -68.5 -173t-186.5 -55t-186.5 55t-68.5 173v224q0 118 68.5 172.5t186.5 54.5zM204 539 h125q52 0 87.5 -33t35.5 -96q0 -44 -18 -75.5t-48 -45.5l73 -161h-63l-68 149h-63v-149h-61v411zM265 481v-146h64q27 0 47 19t20 56q0 35 -20 53t-47 18h-64z" />
<glyph unicode="&#xaf;" horiz-adv-x="369" d="M50 612h270v-56h-270v56z" />
<glyph unicode="&#xb0;" horiz-adv-x="323" d="M162 619q-26 0 -42 -16t-16 -42t16 -42t42 -16t42 16t16 42t-16 42t-42 16zM162 673q50 0 81 -31t31 -81t-31 -81t-81 -31t-81 31t-31 81t31 81t81 31z" />
<glyph unicode="&#xb1;" horiz-adv-x="519" d="M80 151h360v-56h-360v56zM230 441h60v-92h150v-56h-150v-92h-60v92h-150v56h150v92z" />
<glyph unicode="&#xb4;" horiz-adv-x="335" d="M204 667h82l-165 -211h-71z" />
<glyph unicode="&#xb5;" horiz-adv-x="559" d="M75 477h70v-273q0 -70 35 -107t85 -37t85 37t35 107v273h70v-353q0 -32 14.5 -48t35.5 -16h10v-66h-10q-35 0 -62.5 19t-39.5 55q-44 -74 -138 -74q-75 0 -120 61v-240h-70v662z" />
<glyph unicode="&#xb6;" horiz-adv-x="541" d="M457 667v-667h-73v598h-106v-598h-73v263q-66 14 -108 65t-42 134q0 100 57.5 152.5t142.5 52.5h202z" />
<glyph unicode="&#xb7;" horiz-adv-x="261" d="M131 301q23 0 37 -14.5t14 -36.5t-14 -36.5t-37 -14.5t-37 14.5t-14 36.5t14 36.5t37 14.5z" />
<glyph unicode="&#xb8;" horiz-adv-x="341" d="M217 0l-19 -37q47 -4 70.5 -19t23.5 -48q0 -87 -135 -87q-67 0 -107 15l27 51q33 -11 80 -11q39 0 58 6.5t19 25.5q0 34 -67 34h-40l36 70h54z" />
<glyph unicode="&#xba;" horiz-adv-x="380" d="M320 581q6 -21 6 -67v-27q0 -46 -6 -66q-11 -44 -45 -68.5t-84 -24.5t-84 24.5t-46 68.5q-6 20 -6 66v27q0 46 6 67q11 43 45.5 68t84.5 25t84 -25t45 -68zM260 424q9 19 9 63v27q0 44 -9 64q-17 41 -69 41q-53 0 -70 -41q-9 -20 -9 -64v-27q0 -44 9 -63q17 -42 70 -42 q52 0 69 42z" />
<glyph unicode="&#xbb;" horiz-adv-x="544" d="M152 437l143 -164v-46l-143 -164h-72l159 187l-159 187h72zM322 437l143 -164v-46l-143 -164h-72l159 187l-159 187h72z" />
<glyph unicode="&#xbc;" horiz-adv-x="823" d="M560 667h64l-360 -667h-64zM199 667h47v-402h-58v333l-39 -20l-26 51zM626 402h59l-112 -251h101v98h55v-98h34v-55h-34v-96h-55v96h-167v38z" />
<glyph unicode="&#xbd;" horiz-adv-x="823" d="M560 667h64l-360 -667h-64zM199 667h47v-402h-58v333l-39 -20l-26 51zM524 345q46 61 117 61q51 0 83 -33.5t32 -80.5q0 -43 -39 -92l-113 -144h160v-56h-244v40l154 195q24 32 24 57q0 24 -16 41t-41 17q-42 0 -72 -39z" />
<glyph unicode="&#xbe;" horiz-adv-x="823" d="M560 667h64l-360 -667h-64zM626 402h59l-112 -251h101v98h55v-98h34v-55h-34v-96h-55v96h-167v38zM61 609q46 61 117 61q51 0 83.5 -33.5t32.5 -80.5q0 -52 -39 -84q44 -34 44 -92q0 -49 -33.5 -84t-87.5 -35q-72 0 -121 63l45 35q32 -42 76 -42q28 0 45.5 18.5 t17.5 44.5q0 24 -16.5 43.5t-46.5 19.5h-47v56h47q25 0 41.5 16.5t16.5 40.5q0 23 -16.5 40.5t-41.5 17.5q-42 0 -72 -39z" />
<glyph unicode="&#xbf;" horiz-adv-x="377" d="M245 386q-23 0 -37 14t-14 37t14 37t37 14t37 -14t14 -37t-14 -37t-37 -14zM275 302q2 -37 2 -57q0 -92 -90 -151q-58 -38 -58 -102q0 -52 34.5 -82.5t85.5 -30.5q68 0 116 56l58 -44q-31 -38 -78 -60t-96 -22q-80 0 -137 50t-57 133q0 101 84 154q40 25 57.5 48.5 t18.5 61.5l2 46h58z" />
<glyph unicode="&#xc0;" horiz-adv-x="608" d="M198 857h78l75 -121h-66zM305 571l-115 -336h229zM273 667h64l237 -667h-75l-57 165h-274l-57 -165h-76z" />
<glyph unicode="&#xc1;" horiz-adv-x="608" d="M412 857l-87 -121h-66l75 121h78zM305 571l-115 -336h229zM273 667h64l237 -667h-75l-57 165h-274l-57 -165h-76z" />
<glyph unicode="&#xc2;" horiz-adv-x="608" d="M266 857h78l95 -121h-66l-68 77l-68 -77h-66zM305 571l-115 -336h229zM273 667h64l237 -667h-75l-57 165h-274l-57 -165h-76z" />
<glyph unicode="&#xc3;" horiz-adv-x="608" d="M252 799q-20 0 -31.5 -14.5t-11.5 -38.5h-50q0 43 25 73t66 30q47 0 76 -41q12 -18 34 -18q17 0 29 13.5t12 38.5h50q0 -46 -28 -74t-65 -28q-47 0 -74 40q-12 19 -32 19zM305 571l-115 -336h229zM273 667h64l237 -667h-75l-57 165h-274l-57 -165h-76z" />
<glyph unicode="&#xc4;" horiz-adv-x="608" d="M215 834q21 0 34 -13t13 -34t-13 -34t-34 -13t-34 13t-13 34t13 34t34 13zM395 834q21 0 34 -13t13 -34t-13 -34t-34 -13t-34 13t-13 34t13 34t34 13zM305 571l-115 -336h229zM273 667h64l237 -667h-75l-57 165h-274l-57 -165h-76z" />
<glyph unicode="&#xc5;" horiz-adv-x="608" d="M305 843q-20 0 -32 -13t-12 -34q0 -20 12 -33t32 -13t32.5 13t12.5 33t-12.5 33.5t-32.5 13.5zM305 883q39 0 63 -23.5t24 -63.5q0 -39 -24 -63t-63 -24q-38 0 -62.5 24t-24.5 63t24 63t63 24zM305 571l-115 -336h229zM273 667h64l237 -667h-75l-57 165h-274l-57 -165 h-76z" />
<glyph unicode="&#xc6;" horiz-adv-x="791" d="M422 588l-185 -353h185v353zM114 0h-79l354 667h328v-70h-224v-220h201v-69h-201v-239h234v-69h-305v165h-221z" />
<glyph unicode="&#xc7;" horiz-adv-x="539" d="M290 673q121 0 185 -71l-48 -52q-49 53 -137 53q-113 0 -141 -85q-10 -31 -10 -80v-209q0 -49 10 -80q28 -85 141 -85q92 0 142 53l48 -52q-58 -63 -166 -70l-16 -32q47 -4 70.5 -19t23.5 -48q0 -87 -135 -87q-67 0 -107 15l27 51q33 -11 80 -11q39 0 58 6.5t19 25.5 q0 34 -67 34h-40l34 65q-157 12 -189 154q-7 29 -7 80v209q0 51 7 80q35 155 218 155z" />
<glyph unicode="&#xc8;" horiz-adv-x="500" d="M144 857h78l75 -121h-66zM75 667h359v-70h-287v-219h237v-70h-235v-238h286v-70h-360v667z" />
<glyph unicode="&#xc9;" horiz-adv-x="500" d="M358 857l-87 -121h-66l75 121h78zM75 667h359v-70h-287v-219h237v-70h-235v-238h286v-70h-360v667z" />
<glyph unicode="&#xca;" horiz-adv-x="500" d="M212 857h78l95 -121h-66l-68 77l-68 -77h-66zM75 667h359v-70h-287v-219h237v-70h-235v-238h286v-70h-360v667z" />
<glyph unicode="&#xcb;" horiz-adv-x="500" d="M161 834q21 0 34 -13t13 -34t-13 -34t-34 -13t-34 13t-13 34t13 34t34 13zM341 834q21 0 34 -13t13 -34t-13 -34t-34 -13t-34 13t-13 34t13 34t34 13zM75 667h359v-70h-287v-219h237v-70h-235v-238h286v-70h-360v667z" />
<glyph unicode="&#xcc;" horiz-adv-x="223" d="M5 857h78l75 -121h-66zM149 667v-667h-74v667h74z" />
<glyph unicode="&#xcd;" horiz-adv-x="223" d="M219 857l-87 -121h-66l75 121h78zM149 667v-667h-74v667h74z" />
<glyph unicode="&#xce;" horiz-adv-x="223" d="M73 857h78l95 -121h-66l-68 77l-68 -77h-66zM149 667v-667h-74v667h74z" />
<glyph unicode="&#xcf;" horiz-adv-x="223" d="M22 834q21 0 34 -13t13 -34t-13 -34t-34 -13t-34 13t-13 34t13 34t34 13zM202 834q21 0 34 -13t13 -34t-13 -34t-34 -13t-34 13t-13 34t13 34t34 13zM149 667v-667h-74v667h74z" />
<glyph unicode="&#xd0;" horiz-adv-x="620" d="M197 313v-243h124q161 0 161 158v212q0 157 -161 157h-124v-224h131v-60h-131zM127 667h194q104 0 169.5 -55t65.5 -172v-212q0 -117 -65.5 -172.5t-169.5 -55.5h-194v313h-72v60h72v294z" />
<glyph unicode="&#xd1;" horiz-adv-x="589" d="M242 799q-20 0 -31.5 -14.5t-11.5 -38.5h-50q0 43 25 73t66 30q47 0 76 -41q12 -18 34 -18q17 0 29 13.5t12 38.5h50q0 -46 -28 -74t-65 -28q-47 0 -74 40q-12 19 -32 19zM75 667h65l301 -520v520h74v-667h-65l-301 520v-520h-74v667z" />
<glyph unicode="&#xd2;" horiz-adv-x="599" d="M193 857h78l75 -121h-66zM535 438v-209q0 -50 -7 -79q-34 -156 -228 -156q-193 0 -228 155q-7 29 -7 80v209q0 51 7 80q35 155 228 155q194 0 228 -156q7 -29 7 -79zM461 438q0 50 -10 80q-28 85 -151 85t-151 -85q-10 -31 -10 -80v-209q0 -49 10 -80q28 -85 151 -85 t151 85q10 30 10 80v209z" />
<glyph unicode="&#xd3;" horiz-adv-x="599" d="M407 857l-87 -121h-66l75 121h78zM535 438v-209q0 -50 -7 -79q-34 -156 -228 -156q-193 0 -228 155q-7 29 -7 80v209q0 51 7 80q35 155 228 155q194 0 228 -156q7 -29 7 -79zM461 438q0 50 -10 80q-28 85 -151 85t-151 -85q-10 -31 -10 -80v-209q0 -49 10 -80 q28 -85 151 -85t151 85q10 30 10 80v209z" />
<glyph unicode="&#xd4;" horiz-adv-x="599" d="M261 857h78l95 -121h-66l-68 77l-68 -77h-66zM535 438v-209q0 -50 -7 -79q-34 -156 -228 -156q-193 0 -228 155q-7 29 -7 80v209q0 51 7 80q35 155 228 155q194 0 228 -156q7 -29 7 -79zM461 438q0 50 -10 80q-28 85 -151 85t-151 -85q-10 -31 -10 -80v-209q0 -49 10 -80 q28 -85 151 -85t151 85q10 30 10 80v209z" />
<glyph unicode="&#xd5;" horiz-adv-x="599" d="M247 799q-20 0 -31.5 -14.5t-11.5 -38.5h-50q0 43 25 73t66 30q47 0 76 -41q12 -18 34 -18q17 0 29 13.5t12 38.5h50q0 -46 -28 -74t-65 -28q-47 0 -74 40q-12 19 -32 19zM535 438v-209q0 -50 -7 -79q-34 -156 -228 -156q-193 0 -228 155q-7 29 -7 80v209q0 51 7 80 q35 155 228 155q194 0 228 -156q7 -29 7 -79zM461 438q0 50 -10 80q-28 85 -151 85t-151 -85q-10 -31 -10 -80v-209q0 -49 10 -80q28 -85 151 -85t151 85q10 30 10 80v209z" />
<glyph unicode="&#xd6;" horiz-adv-x="599" d="M210 834q21 0 34 -13t13 -34t-13 -34t-34 -13t-34 13t-13 34t13 34t34 13zM390 834q21 0 34 -13t13 -34t-13 -34t-34 -13t-34 13t-13 34t13 34t34 13zM535 438v-209q0 -50 -7 -79q-34 -156 -228 -156q-193 0 -228 155q-7 29 -7 80v209q0 51 7 80q35 155 228 155 q194 0 228 -156q7 -29 7 -79zM461 438q0 50 -10 80q-28 85 -151 85t-151 -85q-10 -31 -10 -80v-209q0 -49 10 -80q28 -85 151 -85t151 85q10 30 10 80v209z" />
<glyph unicode="&#xd7;" horiz-adv-x="519" d="M107 135l115 115l-116 116l39 39l116 -119l115 118l37 -37l-115 -115l116 -116l-39 -39l-116 119l-115 -118z" />
<glyph unicode="&#xd8;" horiz-adv-x="600" d="M154 135l256 441q-37 27 -110 27q-123 0 -151 -85q-10 -31 -10 -80v-209q0 -49 10 -80q1 -3 2.5 -7t2.5 -7zM461 438q0 50 -10 80q-1 4 -5 12l-255 -440q38 -26 109 -26q123 0 151 85q10 30 10 80v209zM535 438v-209q0 -50 -7 -79q-34 -156 -228 -156q-88 0 -144 36 l-33 -57h-63l54 93q-31 35 -42 83q-7 29 -7 80v209q0 51 7 80q35 155 228 155q86 0 145 -36l33 56h63l-54 -93q31 -36 41 -83q7 -29 7 -79z" />
<glyph unicode="&#xd9;" horiz-adv-x="569" d="M178 857h78l75 -121h-66zM500 667v-438q0 -50 -7 -79q-16 -76 -70 -116t-138 -40t-137.5 40t-70.5 115q-7 29 -7 80v438h74v-438q0 -49 10 -80q28 -85 131 -85t131 85q10 30 10 80v438h74z" />
<glyph unicode="&#xda;" horiz-adv-x="569" d="M392 857l-87 -121h-66l75 121h78zM500 667v-438q0 -50 -7 -79q-16 -76 -70 -116t-138 -40t-137.5 40t-70.5 115q-7 29 -7 80v438h74v-438q0 -49 10 -80q28 -85 131 -85t131 85q10 30 10 80v438h74z" />
<glyph unicode="&#xdb;" horiz-adv-x="569" d="M246 857h78l95 -121h-66l-68 77l-68 -77h-66zM500 667v-438q0 -50 -7 -79q-16 -76 -70 -116t-138 -40t-137.5 40t-70.5 115q-7 29 -7 80v438h74v-438q0 -49 10 -80q28 -85 131 -85t131 85q10 30 10 80v438h74z" />
<glyph unicode="&#xdc;" horiz-adv-x="569" d="M195 834q21 0 34 -13t13 -34t-13 -34t-34 -13t-34 13t-13 34t13 34t34 13zM375 834q21 0 34 -13t13 -34t-13 -34t-34 -13t-34 13t-13 34t13 34t34 13zM500 667v-438q0 -50 -7 -79q-16 -76 -70 -116t-138 -40t-137.5 40t-70.5 115q-7 29 -7 80v438h74v-438q0 -49 10 -80 q28 -85 131 -85t131 85q10 30 10 80v438h74z" />
<glyph unicode="&#xdd;" horiz-adv-x="540" d="M377 857l-86 -121h-66l75 121h77zM35 667h81l154 -309l157 309h79l-199 -390v-277h-74v277z" />
<glyph unicode="&#xde;" horiz-adv-x="531" d="M148 469v-271h129q55 0 91 35t36 101q0 65 -36 100t-91 35h-129zM75 667h73v-129h129q85 0 142.5 -52.5t57.5 -151.5q0 -100 -57.5 -152.5t-142.5 -52.5h-129v-129h-73v667z" />
<glyph unicode="&#xdf;" horiz-adv-x="529" d="M270 66q59 0 92 34t33 89q0 50 -37 86t-98 36h-65v64h65q56 0 86 32.5t30 80.5q0 50 -30.5 81.5t-85.5 31.5q-59 0 -92 -35.5t-33 -91.5v-474h-70v474q0 84 52 138.5t143 54.5q88 0 137 -50t49 -130q0 -45 -21.5 -83.5t-55.5 -59.5q44 -15 70 -58.5t26 -96.5 q0 -83 -52 -136t-143 -53h-75v66h75z" />
<glyph unicode="&#xe0;" horiz-adv-x="452" d="M111 666h78l75 -121h-66zM325 229q-35 4 -71 4q-151 0 -151 -90q0 -37 26.5 -60.5t70.5 -23.5q41 0 73 20.5t45 63.5q7 24 7 67v19zM218 483q139 0 168 -130q7 -28 7 -95v-258h-68v52q-56 -58 -133 -58q-67 0 -112 41.5t-45 107.5q0 77 56.5 114t154.5 37q46 0 79 -5 q0 37 -8 63q-22 67 -99 67q-69 0 -121 -32l-34 55q64 41 155 41z" />
<glyph unicode="&#xe1;" horiz-adv-x="452" d="M325 666l-87 -121h-66l75 121h78zM325 229q-35 4 -71 4q-151 0 -151 -90q0 -37 26.5 -60.5t70.5 -23.5q41 0 73 20.5t45 63.5q7 24 7 67v19zM218 483q139 0 168 -130q7 -28 7 -95v-258h-68v52q-56 -58 -133 -58q-67 0 -112 41.5t-45 107.5q0 77 56.5 114t154.5 37 q46 0 79 -5q0 37 -8 63q-22 67 -99 67q-69 0 -121 -32l-34 55q64 41 155 41z" />
<glyph unicode="&#xe2;" horiz-adv-x="452" d="M179 666h78l95 -121h-66l-68 77l-68 -77h-66zM325 229q-35 4 -71 4q-151 0 -151 -90q0 -37 26.5 -60.5t70.5 -23.5q41 0 73 20.5t45 63.5q7 24 7 67v19zM218 483q139 0 168 -130q7 -28 7 -95v-258h-68v52q-56 -58 -133 -58q-67 0 -112 41.5t-45 107.5q0 77 56.5 114 t154.5 37q46 0 79 -5q0 37 -8 63q-22 67 -99 67q-69 0 -121 -32l-34 55q64 41 155 41z" />
<glyph unicode="&#xe3;" horiz-adv-x="452" d="M165 608q-20 0 -31.5 -14.5t-11.5 -38.5h-50q0 43 25 73t66 30q47 0 76 -41q12 -18 34 -18q17 0 29 13.5t12 38.5h50q0 -46 -28 -74t-65 -28q-47 0 -74 40q-12 19 -32 19zM325 229q-35 4 -71 4q-151 0 -151 -90q0 -37 26.5 -60.5t70.5 -23.5q41 0 73 20.5t45 63.5 q7 24 7 67v19zM218 483q139 0 168 -130q7 -28 7 -95v-258h-68v52q-56 -58 -133 -58q-67 0 -112 41.5t-45 107.5q0 77 56.5 114t154.5 37q46 0 79 -5q0 37 -8 63q-22 67 -99 67q-69 0 -121 -32l-34 55q64 41 155 41z" />
<glyph unicode="&#xe4;" horiz-adv-x="452" d="M128 643q21 0 34 -13t13 -34t-13 -34t-34 -13t-34 13t-13 34t13 34t34 13zM308 643q21 0 34 -13t13 -34t-13 -34t-34 -13t-34 13t-13 34t13 34t34 13zM325 229q-35 4 -71 4q-151 0 -151 -90q0 -37 26.5 -60.5t70.5 -23.5q41 0 73 20.5t45 63.5q7 24 7 67v19zM218 483 q139 0 168 -130q7 -28 7 -95v-258h-68v52q-56 -58 -133 -58q-67 0 -112 41.5t-45 107.5q0 77 56.5 114t154.5 37q46 0 79 -5q0 37 -8 63q-22 67 -99 67q-69 0 -121 -32l-34 55q64 41 155 41z" />
<glyph unicode="&#xe5;" horiz-adv-x="452" d="M218 652q-20 0 -32 -13t-12 -34q0 -20 12 -33t32 -13t32.5 13t12.5 33t-12.5 33.5t-32.5 13.5zM218 692q39 0 63 -23.5t24 -63.5q0 -39 -24 -63t-63 -24q-38 0 -62.5 24t-24.5 63t24 63t63 24zM325 229q-35 4 -71 4q-151 0 -151 -90q0 -37 26.5 -60.5t70.5 -23.5 q41 0 73 20.5t45 63.5q7 24 7 67v19zM218 483q139 0 168 -130q7 -28 7 -95v-258h-68v52q-56 -58 -133 -58q-67 0 -112 41.5t-45 107.5q0 77 56.5 114t154.5 37q46 0 79 -5q0 37 -8 63q-22 67 -99 67q-69 0 -121 -32l-34 55q64 41 155 41z" />
<glyph unicode="&#xe6;" horiz-adv-x="719" d="M73 442q64 41 145 41q95 0 131 -81q37 81 141 81q175 0 175 -225v-38h-284q0 -76 29 -120t85 -44q61 0 114 36l34 -53q-63 -45 -148 -45q-107 0 -147 90q-20 -46 -63.5 -68t-92.5 -22q-66 0 -106.5 41t-40.5 108q0 149 201 149q38 0 71 -5q0 39 -8 65q-12 37 -39 53 t-52 16q-58 0 -112 -33zM599 280q-2 64 -30 102.5t-79 38.5t-79 -38.5t-30 -102.5h218zM200 57q57 0 87 39.5t30 113.5v21q-35 4 -63 4q-143 0 -143 -92q0 -38 23 -62t66 -24z" />
<glyph unicode="&#xe7;" horiz-adv-x="427" d="M245 483q81 0 133 -41l-36 -56q-41 31 -97 31q-78 0 -107 -64q-13 -29 -13 -95v-39q0 -66 13 -95q29 -64 107 -64q61 0 102 35l36 -56q-44 -38 -114 -44l-16 -32q47 -4 70.5 -19t23.5 -48q0 -87 -135 -87q-66 0 -107 15l27 51q33 -11 80 -11q39 0 58 6.5t19 25.5 q0 34 -67 34h-40l34 66q-59 7 -98.5 40.5t-54.5 87.5q-8 29 -8 95v39q0 66 8 95q17 61 64 95.5t118 34.5z" />
<glyph unicode="&#xe8;" d="M138 667h78l75 -121h-66zM123 282h244q0 44 -13 71q-30 66 -109 66t-109 -66q-13 -27 -13 -71zM250 58q76 0 128 35l35 -54q-63 -45 -163 -45q-74 0 -122 34t-65 96q-8 29 -8 95v39q0 66 8 95q17 61 64 95.5t118 34.5t118 -34.5t64 -95.5q8 -29 8 -95v-40h-312 q0 -65 13 -94q30 -66 114 -66z" />
<glyph unicode="&#xe9;" d="M352 667l-87 -121h-66l75 121h78zM123 282h244q0 44 -13 71q-30 66 -109 66t-109 -66q-13 -27 -13 -71zM250 58q76 0 128 35l35 -54q-63 -45 -163 -45q-74 0 -122 34t-65 96q-8 29 -8 95v39q0 66 8 95q17 61 64 95.5t118 34.5t118 -34.5t64 -95.5q8 -29 8 -95v-40h-312 q0 -65 13 -94q30 -66 114 -66z" />
<glyph unicode="&#xea;" d="M206 667h78l95 -121h-66l-68 77l-68 -77h-66zM123 282h244q0 44 -13 71q-30 66 -109 66t-109 -66q-13 -27 -13 -71zM250 58q76 0 128 35l35 -54q-63 -45 -163 -45q-74 0 -122 34t-65 96q-8 29 -8 95v39q0 66 8 95q17 61 64 95.5t118 34.5t118 -34.5t64 -95.5q8 -29 8 -95 v-40h-312q0 -65 13 -94q30 -66 114 -66z" />
<glyph unicode="&#xeb;" d="M155 644q21 0 34 -13t13 -34t-13 -34t-34 -13t-34 13t-13 34t13 34t34 13zM335 644q21 0 34 -13t13 -34t-13 -34t-34 -13t-34 13t-13 34t13 34t34 13zM123 282h244q0 44 -13 71q-30 66 -109 66t-109 -66q-13 -27 -13 -71zM250 58q76 0 128 35l35 -54q-63 -45 -163 -45 q-74 0 -122 34t-65 96q-8 29 -8 95v39q0 66 8 95q17 61 64 95.5t118 34.5t118 -34.5t64 -95.5q8 -29 8 -95v-40h-312q0 -65 13 -94q30 -66 114 -66z" />
<glyph unicode="&#xec;" horiz-adv-x="213" d="M0 667h78l75 -121h-66zM72 477h70v-477h-70v477z" />
<glyph unicode="&#xed;" horiz-adv-x="213" d="M214 667l-87 -121h-66l75 121h78zM72 477h70v-477h-70v477z" />
<glyph unicode="&#xee;" horiz-adv-x="213" d="M68 667h78l95 -121h-66l-68 77l-68 -77h-66zM72 477h70v-477h-70v477z" />
<glyph unicode="&#xef;" horiz-adv-x="213" d="M17 644q21 0 34 -13t13 -34t-13 -34t-34 -13t-34 13t-13 34t13 34t34 13zM197 644q21 0 34 -13t13 -34t-13 -34t-34 -13t-34 13t-13 34t13 34t34 13zM72 477h70v-477h-70v477z" />
<glyph unicode="&#xf0;" horiz-adv-x="507" d="M250 367q-51 0 -88 -37.5t-37 -106.5v-19q0 -69 37 -106.5t88 -37.5t88 37.5t37 106.5v18q0 70 -37 107.5t-88 37.5zM443 204q0 -101 -57 -155.5t-136 -54.5q-80 0 -137.5 54.5t-57.5 155.5v18q0 102 53.5 156.5t131.5 54.5q82 0 132 -66q-10 101 -52 172l-65 -46l-31 44 l65 46q-29 34 -60 60l40 34q41 -35 66 -62l60 42l31 -44l-59 -41q46 -69 61 -153t15 -215z" />
<glyph unicode="&#xf1;" horiz-adv-x="484" d="M192 609q-20 0 -31.5 -14.5t-11.5 -38.5h-50q0 43 25 73t66 30q47 0 76 -41q12 -18 34 -18q17 0 29 13.5t12 38.5h50q0 -46 -28 -74t-65 -28q-47 0 -74 40q-12 19 -32 19zM65 477h70v-45q40 51 120 51q63 0 105.5 -34.5t57.5 -95.5q7 -29 7 -95v-258h-70v258q0 68 -10 95 q-26 64 -100 64t-100 -64q-10 -27 -10 -95v-258h-70v477z" />
<glyph unicode="&#xf2;" d="M138 667h78l75 -121h-66zM435 258v-39q0 -66 -8 -95q-17 -61 -64 -95.5t-118 -34.5t-118 34.5t-64 95.5q-8 29 -8 95v39q0 66 8 95q17 61 64 95.5t118 34.5t118 -34.5t64 -95.5q8 -29 8 -95zM365 219v39q0 66 -13 95q-29 64 -107 64t-107 -64q-13 -29 -13 -95v-39 q0 -66 13 -95q29 -64 107 -64t107 64q13 29 13 95z" />
<glyph unicode="&#xf3;" d="M352 667l-87 -121h-66l75 121h78zM435 258v-39q0 -66 -8 -95q-17 -61 -64 -95.5t-118 -34.5t-118 34.5t-64 95.5q-8 29 -8 95v39q0 66 8 95q17 61 64 95.5t118 34.5t118 -34.5t64 -95.5q8 -29 8 -95zM365 219v39q0 66 -13 95q-29 64 -107 64t-107 -64q-13 -29 -13 -95 v-39q0 -66 13 -95q29 -64 107 -64t107 64q13 29 13 95z" />
<glyph unicode="&#xf4;" d="M206 667h78l95 -121h-66l-68 77l-68 -77h-66zM435 258v-39q0 -66 -8 -95q-17 -61 -64 -95.5t-118 -34.5t-118 34.5t-64 95.5q-8 29 -8 95v39q0 66 8 95q17 61 64 95.5t118 34.5t118 -34.5t64 -95.5q8 -29 8 -95zM365 219v39q0 66 -13 95q-29 64 -107 64t-107 -64 q-13 -29 -13 -95v-39q0 -66 13 -95q29 -64 107 -64t107 64q13 29 13 95z" />
<glyph unicode="&#xf5;" d="M192 609q-20 0 -31.5 -14.5t-11.5 -38.5h-50q0 43 25 73t66 30q47 0 76 -41q12 -18 34 -18q17 0 29 13.5t12 38.5h50q0 -46 -28 -74t-65 -28q-47 0 -74 40q-12 19 -32 19zM435 258v-39q0 -66 -8 -95q-17 -61 -64 -95.5t-118 -34.5t-118 34.5t-64 95.5q-8 29 -8 95v39 q0 66 8 95q17 61 64 95.5t118 34.5t118 -34.5t64 -95.5q8 -29 8 -95zM365 219v39q0 66 -13 95q-29 64 -107 64t-107 -64q-13 -29 -13 -95v-39q0 -66 13 -95q29 -64 107 -64t107 64q13 29 13 95z" />
<glyph unicode="&#xf6;" d="M155 644q21 0 34 -13t13 -34t-13 -34t-34 -13t-34 13t-13 34t13 34t34 13zM335 644q21 0 34 -13t13 -34t-13 -34t-34 -13t-34 13t-13 34t13 34t34 13zM435 258v-39q0 -66 -8 -95q-17 -61 -64 -95.5t-118 -34.5t-118 34.5t-64 95.5q-8 29 -8 95v39q0 66 8 95 q17 61 64 95.5t118 34.5t118 -34.5t64 -95.5q8 -29 8 -95zM365 219v39q0 66 -13 95q-29 64 -107 64t-107 -64q-13 -29 -13 -95v-39q0 -66 13 -95q29 -64 107 -64t107 64q13 29 13 95z" />
<glyph unicode="&#xf7;" horiz-adv-x="519" d="M261 149q20 0 33 -13t13 -33t-13 -32.5t-33 -12.5t-33 12.5t-13 32.5t13 33t33 13zM261 439q20 0 33 -12.5t13 -32.5t-13 -33t-33 -13t-33 13t-13 33t13 32.5t33 12.5zM80 279h360v-56h-360v56z" />
<glyph unicode="&#xf8;" d="M317 398q-31 21 -72 21q-79 0 -109 -66q-13 -27 -13 -95v-39q0 -68 13 -95q2 -4 3 -7zM367 219v39q0 68 -13 95q-2 4 -3 7l-178 -281q31 -21 72 -21q79 0 109 66q13 27 13 95zM435 258v-39q0 -66 -8 -95q-17 -61 -64.5 -95.5t-117.5 -34.5q-58 0 -108 30l-34 -54h-58 l55 87q-26 31 -37 67q-8 29 -8 95v39q0 66 8 95q17 61 64.5 95.5t117.5 34.5q58 0 108 -30l34 54h58l-55 -87q26 -31 37 -67q8 -29 8 -95z" />
<glyph unicode="&#xf9;" horiz-adv-x="479" d="M133 666h78l75 -121h-66zM130 477v-258q0 -66 11 -96q24 -63 99 -63t99 63q11 30 11 96v258h70v-258q0 -67 -7 -96q-15 -61 -59.5 -95t-113.5 -34t-113.5 34t-59.5 95q-7 29 -7 96v258h70z" />
<glyph unicode="&#xfa;" horiz-adv-x="479" d="M347 666l-87 -121h-66l75 121h78zM130 477v-258q0 -66 11 -96q24 -63 99 -63t99 63q11 30 11 96v258h70v-258q0 -67 -7 -96q-15 -61 -59.5 -95t-113.5 -34t-113.5 34t-59.5 95q-7 29 -7 96v258h70z" />
<glyph unicode="&#xfb;" horiz-adv-x="479" d="M201 666h78l95 -121h-66l-68 77l-68 -77h-66zM130 477v-258q0 -66 11 -96q24 -63 99 -63t99 63q11 30 11 96v258h70v-258q0 -67 -7 -96q-15 -61 -59.5 -95t-113.5 -34t-113.5 34t-59.5 95q-7 29 -7 96v258h70z" />
<glyph unicode="&#xfc;" horiz-adv-x="479" d="M150 643q21 0 34 -13t13 -34t-13 -34t-34 -13t-34 13t-13 34t13 34t34 13zM330 643q21 0 34 -13t13 -34t-13 -34t-34 -13t-34 13t-13 34t13 34t34 13zM130 477v-258q0 -66 11 -96q24 -63 99 -63t99 63q11 30 11 96v258h70v-258q0 -67 -7 -96q-15 -61 -59.5 -95 t-113.5 -34t-113.5 34t-59.5 95q-7 29 -7 96v258h70z" />
<glyph unicode="&#xfd;" horiz-adv-x="476" d="M345 666l-86 -121h-66l75 121h77zM202 0l-172 477h74l135 -389l134 389h74l-238 -662h-74z" />
<glyph unicode="&#xfe;" horiz-adv-x="507" d="M258 417q-51 0 -88 -37.5t-37 -107.5v-68q0 -69 37 -106.5t88 -37.5t88 37.5t37 106.5v69q0 69 -37 106.5t-88 37.5zM268 483q78 0 131.5 -54.5t53.5 -156.5v-68q0 -102 -53.5 -156t-131.5 -54q-88 0 -135 65v-244h-68v852h68v-250q48 66 135 66z" />
<glyph unicode="&#xff;" horiz-adv-x="476" d="M148 643q21 0 34.5 -13t13.5 -34t-13.5 -34t-34.5 -13t-33.5 13t-12.5 34t12.5 34t33.5 13zM329 643q21 0 33.5 -13t12.5 -34t-12.5 -34t-33.5 -13t-34.5 13t-13.5 34t13.5 34t34.5 13zM202 0l-172 477h74l135 -389l134 389h74l-238 -662h-74z" />
<glyph unicode="&#x100;" horiz-adv-x="608" d="M169 802h270v-56h-270v56zM305 571l-115 -336h229zM273 667h64l237 -667h-75l-57 165h-274l-57 -165h-76z" />
<glyph unicode="&#x101;" horiz-adv-x="452" d="M82 611h270v-56h-270v56zM325 229q-35 4 -71 4q-151 0 -151 -90q0 -37 26.5 -60.5t70.5 -23.5q41 0 73 20.5t45 63.5q7 24 7 67v19zM218 483q139 0 168 -130q7 -28 7 -95v-258h-68v52q-56 -58 -133 -58q-67 0 -112 41.5t-45 107.5q0 77 56.5 114t154.5 37q46 0 79 -5 q0 37 -8 63q-22 67 -99 67q-69 0 -121 -32l-34 55q64 41 155 41z" />
<glyph unicode="&#x102;" horiz-adv-x="608" d="M166 857h50q0 -35 24 -55t65 -20t65 20t24 55h50q0 -57 -40 -92t-99 -35t-99 35t-40 92zM305 571l-115 -336h229zM273 667h64l237 -667h-75l-57 165h-274l-57 -165h-76z" />
<glyph unicode="&#x103;" horiz-adv-x="452" d="M79 666h50q0 -35 24 -55t65 -20t65 20t24 55h50q0 -57 -40 -92t-99 -35t-99 35t-40 92zM325 229q-35 4 -71 4q-151 0 -151 -90q0 -37 26.5 -60.5t70.5 -23.5q41 0 73 20.5t45 63.5q7 24 7 67v19zM218 483q139 0 168 -130q7 -28 7 -95v-258h-68v52q-56 -58 -133 -58 q-67 0 -112 41.5t-45 107.5q0 77 56.5 114t154.5 37q46 0 79 -5q0 37 -8 63q-22 67 -99 67q-69 0 -121 -32l-34 55q64 41 155 41z" />
<glyph unicode="&#x104;" horiz-adv-x="608" d="M305 571l-115 -336h229zM273 667h64l237 -667h-4q-55 -49 -55 -89q0 -20 11 -33.5t29 -13.5q17 0 28.5 10t26.5 31l41 -28q-11 -18 -18.5 -29t-29.5 -25t-48 -14q-43 0 -66.5 29t-23.5 70q0 52 37 92h-3l-57 165h-274l-57 -165h-76z" />
<glyph unicode="&#x105;" horiz-adv-x="452" d="M325 229q-35 4 -71 4q-151 0 -151 -90q0 -37 26.5 -60.5t70.5 -23.5q41 0 73 20.5t45 63.5q7 24 7 67v19zM218 483q139 0 168 -130q7 -28 7 -95v-258q-55 -49 -55 -89q0 -20 11 -33.5t29 -13.5q17 0 28.5 10t26.5 31l41 -28q-11 -18 -18.5 -29t-29.5 -25t-48 -14 q-43 0 -66.5 29t-23.5 70q0 52 37 92v52q-56 -58 -133 -58q-67 0 -112 41.5t-45 107.5q0 77 56.5 114t154.5 37q46 0 79 -5q0 37 -8 63q-22 67 -99 67q-69 0 -121 -32l-34 55q64 41 155 41z" />
<glyph unicode="&#x106;" horiz-adv-x="539" d="M397 857l-87 -121h-66l75 121h78zM290 673q121 0 185 -71l-48 -52q-49 53 -137 53q-113 0 -141 -85q-10 -31 -10 -80v-209q0 -49 10 -80q28 -85 141 -85q92 0 142 53l48 -52q-66 -71 -190 -71q-183 0 -218 155q-7 29 -7 80v209q0 51 7 80q35 155 218 155z" />
<glyph unicode="&#x107;" horiz-adv-x="427" d="M352 667l-87 -121h-66l75 121h78zM245 483q81 0 133 -41l-36 -56q-41 31 -97 31q-78 0 -107 -64q-13 -29 -13 -95v-39q0 -66 13 -95q29 -64 107 -64q61 0 102 35l36 -56q-53 -45 -138 -45q-71 0 -118 34.5t-64 95.5q-8 29 -8 95v39q0 66 8 95q17 61 64 95.5t118 34.5z " />
<glyph unicode="&#x108;" horiz-adv-x="539" d="M251 857h78l95 -121h-66l-68 77l-68 -77h-66zM290 673q121 0 185 -71l-48 -52q-49 53 -137 53q-113 0 -141 -85q-10 -31 -10 -80v-209q0 -49 10 -80q28 -85 141 -85q92 0 142 53l48 -52q-66 -71 -190 -71q-183 0 -218 155q-7 29 -7 80v209q0 51 7 80q35 155 218 155z" />
<glyph unicode="&#x109;" horiz-adv-x="427" d="M206 667h78l95 -121h-66l-68 77l-68 -77h-66zM245 483q81 0 133 -41l-36 -56q-41 31 -97 31q-78 0 -107 -64q-13 -29 -13 -95v-39q0 -66 13 -95q29 -64 107 -64q61 0 102 35l36 -56q-53 -45 -138 -45q-71 0 -118 34.5t-64 95.5q-8 29 -8 95v39q0 66 8 95q17 61 64 95.5 t118 34.5z" />
<glyph unicode="&#x10a;" horiz-adv-x="539" d="M289 834q21 0 34 -13t13 -34t-13 -34t-34 -13q-20 0 -33.5 13t-13.5 34t13.5 34t33.5 13zM290 673q121 0 185 -71l-48 -52q-49 53 -137 53q-113 0 -141 -85q-10 -31 -10 -80v-209q0 -49 10 -80q28 -85 141 -85q92 0 142 53l48 -52q-66 -71 -190 -71q-183 0 -218 155 q-7 29 -7 80v209q0 51 7 80q35 155 218 155z" />
<glyph unicode="&#x10b;" horiz-adv-x="427" d="M244 644q21 0 34.5 -13t13.5 -34t-13.5 -34t-34.5 -13q-20 0 -33 13t-13 34t13 34t33 13zM245 483q81 0 133 -41l-36 -56q-41 31 -97 31q-78 0 -107 -64q-13 -29 -13 -95v-39q0 -66 13 -95q29 -64 107 -64q61 0 102 35l36 -56q-53 -45 -138 -45q-71 0 -118 34.5t-64 95.5 q-8 29 -8 95v39q0 66 8 95q17 61 64 95.5t118 34.5z" />
<glyph unicode="&#x10c;" horiz-adv-x="539" d="M251 736l-95 121h66l68 -77l68 77h66l-95 -121h-78zM290 673q121 0 185 -71l-48 -52q-49 53 -137 53q-113 0 -141 -85q-10 -31 -10 -80v-209q0 -49 10 -80q28 -85 141 -85q92 0 142 53l48 -52q-66 -71 -190 -71q-183 0 -218 155q-7 29 -7 80v209q0 51 7 80 q35 155 218 155z" />
<glyph unicode="&#x10d;" horiz-adv-x="427" d="M206 546l-95 121h66l68 -77l68 77h66l-95 -121h-78zM245 483q81 0 133 -41l-36 -56q-41 31 -97 31q-78 0 -107 -64q-13 -29 -13 -95v-39q0 -66 13 -95q29 -64 107 -64q61 0 102 35l36 -56q-53 -45 -138 -45q-71 0 -118 34.5t-64 95.5q-8 29 -8 95v39q0 66 8 95 q17 61 64 95.5t118 34.5z" />
<glyph unicode="&#x10e;" horiz-adv-x="569" d="M241 736l-95 121h66l68 -77l68 77h66l-95 -121h-78zM431 468q0 33 -5 50q-21 79 -126 79h-151v-527h151q105 0 126 79q5 17 5 50v269zM75 667h225q86 0 138 -40.5t64 -108.5q3 -18 3 -50v-269q0 -32 -3 -50q-12 -68 -64 -108.5t-138 -40.5h-225v667z" />
<glyph unicode="&#x10f;" d="M567 673q21 0 36 -13t15 -38q0 -20 -9 -46l-45 -120h-45l29 118q-32 11 -32 48q0 25 15 38t36 13zM240 417q-77 0 -104 -64q-11 -27 -11 -95v-39q0 -68 11 -95q27 -64 104 -64q76 0 103 63q12 28 12 96v39q0 68 -12 96q-27 63 -103 63zM425 667v-667h-70v45 q-42 -51 -125 -51q-63 0 -107 34.5t-60 95.5q-8 29 -8 95v39q0 66 8 95q16 61 60 95.5t107 34.5q83 0 125 -51v235h70z" />
<glyph unicode="&#x110;" horiz-adv-x="620" d="M197 313v-243h124q161 0 161 158v212q0 157 -161 157h-124v-224h131v-60h-131zM127 667h194q104 0 169.5 -55t65.5 -172v-212q0 -117 -65.5 -172.5t-169.5 -55.5h-194v313h-72v60h72v294z" />
<glyph unicode="&#x111;" horiz-adv-x="554" d="M250 417q-51 0 -88 -37.5t-37 -106.5v-69q0 -69 37 -106.5t88 -37.5t88 37.5t37 106.5v68q0 70 -37 107.5t-88 37.5zM375 667h68v-74h62v-61h-62v-532h-68v59q-47 -65 -135 -65q-78 0 -131.5 54t-53.5 156v68q0 102 53.5 156.5t131.5 54.5q87 0 135 -66v115h-150v61h150 v74z" />
<glyph unicode="&#x112;" horiz-adv-x="500" d="M115 802h270v-56h-270v56zM75 667h359v-70h-287v-219h237v-70h-235v-238h286v-70h-360v667z" />
<glyph unicode="&#x113;" d="M109 612h270v-56h-270v56zM123 282h244q0 44 -13 71q-30 66 -109 66t-109 -66q-13 -27 -13 -71zM250 58q76 0 128 35l35 -54q-63 -45 -163 -45q-74 0 -122 34t-65 96q-8 29 -8 95v39q0 66 8 95q17 61 64 95.5t118 34.5t118 -34.5t64 -95.5q8 -29 8 -95v-40h-312 q0 -65 13 -94q30 -66 114 -66z" />
<glyph unicode="&#x114;" horiz-adv-x="500" d="M112 857h50q0 -35 24 -55t65 -20t65 20t24 55h50q0 -57 -40 -92t-99 -35t-99 35t-40 92zM75 667h359v-70h-287v-219h237v-70h-235v-238h286v-70h-360v667z" />
<glyph unicode="&#x115;" d="M106 667h50q0 -35 24 -55t65 -20t65 20t24 55h50q0 -57 -40 -92t-99 -35t-99 35t-40 92zM123 282h244q0 44 -13 71q-30 66 -109 66t-109 -66q-13 -27 -13 -71zM250 58q76 0 128 35l35 -54q-63 -45 -163 -45q-74 0 -122 34t-65 96q-8 29 -8 95v39q0 66 8 95q17 61 64 95.5 t118 34.5t118 -34.5t64 -95.5q8 -29 8 -95v-40h-312q0 -65 13 -94q30 -66 114 -66z" />
<glyph unicode="&#x116;" horiz-adv-x="500" d="M250 834q21 0 34.5 -13t13.5 -34t-13.5 -34t-34.5 -13q-20 0 -33 13t-13 34t13 34t33 13zM75 667h359v-70h-287v-219h237v-70h-235v-238h286v-70h-360v667z" />
<glyph unicode="&#x117;" d="M244 644q21 0 34.5 -13t13.5 -34t-13.5 -34t-34.5 -13q-20 0 -33 13t-13 34t13 34t33 13zM123 282h244q0 44 -13 71q-30 66 -109 66t-109 -66q-13 -27 -13 -71zM250 58q76 0 128 35l35 -54q-63 -45 -163 -45q-74 0 -122 34t-65 96q-8 29 -8 95v39q0 66 8 95 q17 61 64 95.5t118 34.5t118 -34.5t64 -95.5q8 -29 8 -95v-40h-312q0 -65 13 -94q30 -66 114 -66z" />
<glyph unicode="&#x118;" horiz-adv-x="500" d="M75 667h359v-70h-287v-219h237v-70h-235v-238h286v-70h-150q-55 -49 -55 -89q0 -20 11 -33.5t29 -13.5q17 0 28.5 10t26.5 31l41 -28q-11 -18 -18.5 -29t-29.5 -25t-48 -14q-43 0 -66.5 29t-23.5 70q0 52 37 92h-142v667z" />
<glyph unicode="&#x119;" d="M123 282h244q0 44 -13 71q-30 66 -109 66t-109 -66q-13 -27 -13 -71zM250 58q76 0 128 35l35 -54q-56 -40 -135 -44q-49 -45 -49 -84q0 -20 11 -33.5t29 -13.5q17 0 28.5 10t26.5 31l41 -28q-11 -18 -18.5 -29t-29.5 -25t-48 -14q-43 0 -66.5 29t-23.5 70q0 50 34 88 q-120 17 -150 128q-8 29 -8 95v39q0 66 8 95q17 61 64 95.5t118 34.5t118 -34.5t64 -95.5q8 -29 8 -95v-40h-312q0 -65 13 -94q30 -66 114 -66z" />
<glyph unicode="&#x11a;" horiz-adv-x="500" d="M212 736l-95 121h66l68 -77l68 77h66l-95 -121h-78zM75 667h359v-70h-287v-219h237v-70h-235v-238h286v-70h-360v667z" />
<glyph unicode="&#x11b;" d="M206 546l-95 121h66l68 -77l68 77h66l-95 -121h-78zM123 282h244q0 44 -13 71q-30 66 -109 66t-109 -66q-13 -27 -13 -71zM250 58q76 0 128 35l35 -54q-63 -45 -163 -45q-74 0 -122 34t-65 96q-8 29 -8 95v39q0 66 8 95q17 61 64 95.5t118 34.5t118 -34.5t64 -95.5 q8 -29 8 -95v-40h-312q0 -65 13 -94q30 -66 114 -66z" />
<glyph unicode="&#x11c;" horiz-adv-x="579" d="M251 857h78l95 -121h-66l-68 77l-68 -77h-66zM290 673q121 0 185 -71l-48 -52q-49 53 -137 53q-113 0 -141 -85q-10 -31 -10 -80v-209q0 -49 10 -80q28 -85 141 -85t141 85q10 30 10 80v58h-138v70h212v-128q0 -50 -7 -79q-34 -156 -218 -156q-183 0 -218 155 q-7 29 -7 80v209q0 51 7 80q35 155 218 155z" />
<glyph unicode="&#x11d;" d="M191 667h78l95 -121h-66l-68 77l-68 -77h-66zM240 417q-77 0 -104 -64q-11 -27 -11 -95v-39q0 -68 11 -95q27 -64 104 -64q76 0 103 63q12 28 12 96v39q0 68 -12 96q-27 63 -103 63zM235 -125q78 0 107 64q13 29 13 95v11q-42 -51 -125 -51q-63 0 -107 34.5t-60 95.5 q-8 29 -8 95v39q0 66 8 95q16 61 60 95.5t107 34.5q83 0 125 -51v45h70v-443q0 -66 -8 -95q-17 -61 -64 -95.5t-118 -34.5q-100 0 -163 45l36 55q50 -34 127 -34z" />
<glyph unicode="&#x11e;" horiz-adv-x="579" d="M151 857h50q0 -35 24 -55t65 -20t65 20t24 55h50q0 -57 -40 -92t-99 -35t-99 35t-40 92zM290 673q121 0 185 -71l-48 -52q-49 53 -137 53q-113 0 -141 -85q-10 -31 -10 -80v-209q0 -49 10 -80q28 -85 141 -85t141 85q10 30 10 80v58h-138v70h212v-128q0 -50 -7 -79 q-34 -156 -218 -156q-183 0 -218 155q-7 29 -7 80v209q0 51 7 80q35 155 218 155z" />
<glyph unicode="&#x11f;" d="M91 667h50q0 -35 24 -55t65 -20t65 20t24 55h50q0 -57 -40 -92t-99 -35t-99 35t-40 92zM240 417q-77 0 -104 -64q-11 -27 -11 -95v-39q0 -68 11 -95q27 -64 104 -64q76 0 103 63q12 28 12 96v39q0 68 -12 96q-27 63 -103 63zM235 -125q78 0 107 64q13 29 13 95v11 q-42 -51 -125 -51q-63 0 -107 34.5t-60 95.5q-8 29 -8 95v39q0 66 8 95q16 61 60 95.5t107 34.5q83 0 125 -51v45h70v-443q0 -66 -8 -95q-17 -61 -64 -95.5t-118 -34.5q-100 0 -163 45l36 55q50 -34 127 -34z" />
<glyph unicode="&#x120;" horiz-adv-x="579" d="M289 834q21 0 34 -13t13 -34t-13 -34t-34 -13q-20 0 -33.5 13t-13.5 34t13.5 34t33.5 13zM290 673q121 0 185 -71l-48 -52q-49 53 -137 53q-113 0 -141 -85q-10 -31 -10 -80v-209q0 -49 10 -80q28 -85 141 -85t141 85q10 30 10 80v58h-138v70h212v-128q0 -50 -7 -79 q-34 -156 -218 -156q-183 0 -218 155q-7 29 -7 80v209q0 51 7 80q35 155 218 155z" />
<glyph unicode="&#x121;" d="M229 644q21 0 34.5 -13t13.5 -34t-13.5 -34t-34.5 -13q-20 0 -33 13t-13 34t13 34t33 13zM240 417q-77 0 -104 -64q-11 -27 -11 -95v-39q0 -68 11 -95q27 -64 104 -64q76 0 103 63q12 28 12 96v39q0 68 -12 96q-27 63 -103 63zM235 -125q78 0 107 64q13 29 13 95v11 q-42 -51 -125 -51q-63 0 -107 34.5t-60 95.5q-8 29 -8 95v39q0 66 8 95q16 61 60 95.5t107 34.5q83 0 125 -51v45h70v-443q0 -66 -8 -95q-17 -61 -64 -95.5t-118 -34.5q-100 0 -163 45l36 55q50 -34 127 -34z" />
<glyph unicode="&#x122;" horiz-adv-x="579" d="M290 -63q51 0 51 -46q0 -24 -9 -40l-45 -81h-45l29 78q-32 11 -32 43q0 46 51 46zM290 673q121 0 185 -71l-48 -52q-49 53 -137 53q-113 0 -141 -85q-10 -31 -10 -80v-209q0 -49 10 -80q28 -85 141 -85t141 85q10 30 10 80v58h-138v70h212v-128q0 -50 -7 -79 q-34 -156 -218 -156q-183 0 -218 155q-7 29 -7 80v209q0 51 7 80q35 155 218 155z" />
<glyph unicode="&#x123;" d="M234 552q-51 0 -51 46q0 24 9 40l45 81h44l-28 -78q32 -11 32 -43q0 -46 -51 -46zM240 417q-77 0 -104 -64q-11 -27 -11 -95v-39q0 -68 11 -95q27 -64 104 -64q76 0 103 63q12 28 12 96v39q0 68 -12 96q-27 63 -103 63zM235 -125q78 0 107 64q13 29 13 95v11 q-42 -51 -125 -51q-63 0 -107 34.5t-60 95.5q-8 29 -8 95v39q0 66 8 95q16 61 60 95.5t107 34.5q83 0 125 -51v45h70v-443q0 -66 -8 -95q-17 -61 -64 -95.5t-118 -34.5q-100 0 -163 45l36 55q50 -34 127 -34z" />
<glyph unicode="&#x124;" horiz-adv-x="589" d="M256 857h78l95 -121h-66l-68 77l-68 -77h-66zM75 667h74v-289h292v289h74v-667h-74v308h-292v-308h-74v667z" />
<glyph unicode="&#x125;" horiz-adv-x="484" d="M62 857h77l96 -121h-67l-67 77l-69 -77h-65zM65 667h70v-235q41 51 120 51q63 0 105.5 -34.5t57.5 -95.5q7 -29 7 -95v-258h-70v258q0 68 -10 95q-24 64 -100 64t-100 -64q-10 -27 -10 -95v-258h-70v667z" />
<glyph unicode="&#x126;" horiz-adv-x="709" d="M205 512v-136h298v136h-298zM134 667h71v-94h298v94h71v-94h61v-61h-61v-512h-71v310h-298v-310h-71v512h-59v61h59v94z" />
<glyph unicode="&#x127;" horiz-adv-x="583" d="M344 483q77 0 126 -53.5t49 -156.5v-273h-70v272q0 71 -32.5 108t-82.5 37q-51 0 -88 -37.5t-37 -106.5v-273h-70v532h-74v61h74v74h70v-74h136v-61h-136v-115q48 66 135 66z" />
<glyph unicode="&#x128;" horiz-adv-x="223" d="M59 799q-20 0 -31.5 -14.5t-11.5 -38.5h-50q0 43 25 73t66 30q47 0 76 -41q12 -18 34 -18q17 0 29 13.5t12 38.5h50q0 -46 -28 -74t-65 -28q-47 0 -74 40q-12 19 -32 19zM149 667v-667h-74v667h74z" />
<glyph unicode="&#x129;" horiz-adv-x="213" d="M54 609q-20 0 -31.5 -14.5t-11.5 -38.5h-50q0 43 25 73t66 30q47 0 76 -41q12 -18 34 -18q17 0 29 13.5t12 38.5h50q0 -46 -28 -74t-65 -28q-47 0 -74 40q-12 19 -32 19zM72 477h70v-477h-70v477z" />
<glyph unicode="&#x12a;" horiz-adv-x="223" d="M-24 802h270v-56h-270v56zM149 667v-667h-74v667h74z" />
<glyph unicode="&#x12b;" horiz-adv-x="213" d="M-29 612h270v-56h-270v56zM72 477h70v-477h-70v477z" />
<glyph unicode="&#x12c;" horiz-adv-x="223" d="M-27 857h50q0 -35 24 -55t65 -20t65 20t24 55h50q0 -57 -40 -92t-99 -35t-99 35t-40 92zM149 667v-667h-74v667h74z" />
<glyph unicode="&#x12d;" horiz-adv-x="213" d="M-32 667h50q0 -35 24 -55t65 -20t65 20t24 55h50q0 -57 -40 -92t-99 -35t-99 35t-40 92zM72 477h70v-477h-70v477z" />
<glyph unicode="&#x12e;" horiz-adv-x="223" d="M149 667v-667h-3q-55 -49 -55 -89q0 -20 11 -33.5t29 -13.5q17 0 28.5 10t26.5 31l41 -28q-11 -18 -18.5 -29t-29.5 -25t-48 -14q-43 0 -66.5 29t-23.5 70q0 52 37 92h-3v667h74z" />
<glyph unicode="&#x12f;" horiz-adv-x="211" d="M105 644q21 0 34.5 -13t13.5 -34t-13.5 -34t-34.5 -13q-20 0 -33 13t-13 34t13 34t33 13zM71 477h70v-477h-8q-48 -45 -48 -83q0 -20 11 -33.5t29 -13.5q17 0 28.5 10t26.5 31l41 -28q-11 -18 -18.5 -29t-29.5 -25t-48 -14q-43 0 -66.5 29t-23.5 70q0 51 36 91v472z" />
<glyph unicode="&#x130;" horiz-adv-x="223" d="M111 834q21 0 34 -13t13 -34t-13 -34t-34 -13q-20 0 -33.5 13t-13.5 34t13.5 34t33.5 13zM149 667v-667h-74v667h74z" />
<glyph unicode="&#x131;" horiz-adv-x="213" d="M72 477h70v-477h-70v477z" />
<glyph unicode="&#x132;" horiz-adv-x="651" d="M159 667v-667h-74v667h74zM503 667h74v-467q0 -99 -55.5 -152.5t-129.5 -53.5q-109 0 -181 94l57 44q52 -68 124 -68q44 0 77.5 35.5t33.5 100.5v467z" />
<glyph unicode="&#x133;" horiz-adv-x="381" d="M302 -60q0 -63 -35.5 -96.5t-84.5 -33.5h-30v62h30q21 0 35.5 17t14.5 51v537h70v-537zM266 634q21 0 34 -13t13 -34t-13 -34t-34 -13q-20 0 -33.5 13t-13.5 34t13.5 34t33.5 13zM82 477h70v-477h-70v477zM116 634q21 0 34 -13t13 -34t-13 -34t-34 -13q-20 0 -33.5 13 t-13.5 34t13.5 34t33.5 13z" />
<glyph unicode="&#x134;" horiz-adv-x="465" d="M320 857h78l95 -121h-66l-68 77l-68 -77h-66zM396 199q0 -33 -3 -50q-12 -72 -63 -113.5t-129 -41.5q-116 0 -166 83l55 44q39 -57 111 -57q45 0 75.5 22.5t40.5 62.5q5 20 5 50v468h74v-468z" />
<glyph unicode="&#x135;" horiz-adv-x="224" d="M76 664h78l95 -121h-66l-68 77l-68 -77h-66zM150 -60q0 -63 -35.5 -96.5t-84.5 -33.5h-30v62h30q21 0 35.5 17t14.5 51v537h70v-537z" />
<glyph unicode="&#x136;" horiz-adv-x="573" d="M285 -63q51 0 51 -46q0 -24 -9 -40l-45 -81h-45l29 78q-32 11 -32 43q0 46 51 46zM149 0h-74v667h74v-343l281 343h86l-258 -309l271 -358h-87l-232 307l-61 -71v-236z" />
<glyph unicode="&#x137;" horiz-adv-x="458" d="M229 -63q51 0 51 -46q0 -24 -9 -40l-45 -81h-45l29 78q-32 11 -32 43q0 46 51 46zM65 667h70v-439l187 249h82l-167 -217l182 -260h-81l-147 212l-56 -75v-137h-70v667z" />
<glyph unicode="&#x138;" horiz-adv-x="466" d="M75 477h68v-249l187 249h82l-167 -217l182 -260h-81l-147 212l-56 -75v-137h-68v477z" />
<glyph unicode="&#x139;" horiz-adv-x="509" d="M220 857l-87 -121h-66l75 121h78zM75 667h74v-597h306v-70h-380v667z" />
<glyph unicode="&#x13a;" horiz-adv-x="199" d="M207 857l-87 -121h-66l75 121h78zM65 667h70v-667h-70v667z" />
<glyph unicode="&#x13b;" horiz-adv-x="509" d="M262 -63q51 0 51 -46q0 -24 -9 -40l-45 -81h-45l29 78q-32 11 -32 43q0 46 51 46zM75 667h74v-597h306v-70h-380v667z" />
<glyph unicode="&#x13c;" horiz-adv-x="199" d="M100 -63q51 0 51 -46q0 -24 -9 -40l-45 -81h-45l29 78q-32 11 -32 43q0 46 51 46zM65 667h70v-667h-70v667z" />
<glyph unicode="&#x13d;" horiz-adv-x="509" d="M291 673q21 0 36 -13t15 -38q0 -20 -9 -46l-45 -120h-45l29 118q-32 11 -32 48q0 25 15 38t36 13zM75 667h74v-597h306v-70h-380v667z" />
<glyph unicode="&#x13e;" horiz-adv-x="199" d="M278 673q21 0 36 -13t15 -38q0 -20 -9 -46l-45 -120h-45l29 118q-32 11 -32 48q0 25 15 38t36 13zM65 667h70v-667h-70v667z" />
<glyph unicode="&#x13f;" horiz-adv-x="509" d="M277 385q23 0 37 -14.5t14 -36.5t-14 -36.5t-37 -14.5t-37 14.5t-14 36.5t14 36.5t37 14.5zM85 667h74v-597h306v-70h-380v667z" />
<glyph unicode="&#x140;" horiz-adv-x="363" d="M263 385q23 0 37 -14.5t14 -36.5t-14 -36.5t-37 -14.5t-37 14.5t-14 36.5t14 36.5t37 14.5zM75 667h70v-667h-70v667z" />
<glyph unicode="&#x141;" horiz-adv-x="594" d="M160 667h70v-301l135 67v-61l-135 -68v-234h310v-70h-380v270l-115 -58v61l115 57v337z" />
<glyph unicode="&#x142;" horiz-adv-x="409" d="M165 667h70v-299l130 66v-61l-130 -66v-307h-70v272l-120 -61v61l120 61v334z" />
<glyph unicode="&#x143;" horiz-adv-x="589" d="M402 857l-87 -121h-66l75 121h78zM75 667h65l301 -520v520h74v-667h-65l-301 520v-520h-74v667z" />
<glyph unicode="&#x144;" horiz-adv-x="484" d="M352 667l-87 -121h-66l75 121h78zM65 477h70v-45q40 51 120 51q63 0 105.5 -34.5t57.5 -95.5q7 -29 7 -95v-258h-70v258q0 68 -10 95q-26 64 -100 64t-100 -64q-10 -27 -10 -95v-258h-70v477z" />
<glyph unicode="&#x145;" horiz-adv-x="589" d="M297 -63q51 0 51 -46q0 -24 -9 -40l-45 -81h-45l29 78q-32 11 -32 43q0 46 51 46zM75 667h65l301 -520v520h74v-667h-65l-301 520v-520h-74v667z" />
<glyph unicode="&#x146;" horiz-adv-x="484" d="M245 -63q51 0 51 -46q0 -24 -9 -40l-45 -81h-45l29 78q-32 11 -32 43q0 46 51 46zM65 477h70v-45q40 51 120 51q63 0 105.5 -34.5t57.5 -95.5q7 -29 7 -95v-258h-70v258q0 68 -10 95q-26 64 -100 64t-100 -64q-10 -27 -10 -95v-258h-70v477z" />
<glyph unicode="&#x147;" horiz-adv-x="589" d="M256 736l-95 121h66l68 -77l68 77h66l-95 -121h-78zM75 667h65l301 -520v520h74v-667h-65l-301 520v-520h-74v667z" />
<glyph unicode="&#x148;" horiz-adv-x="484" d="M206 546l-95 121h66l68 -77l68 77h66l-95 -121h-78zM65 477h70v-45q40 51 120 51q63 0 105.5 -34.5t57.5 -95.5q7 -29 7 -95v-258h-70v258q0 68 -10 95q-26 64 -100 64t-100 -64q-10 -27 -10 -95v-258h-70v477z" />
<glyph unicode="&#x149;" horiz-adv-x="601" d="M362 483q71 0 123 -54.5t52 -155.5v-273h-70v272q0 71 -32.5 108t-82.5 37q-51 0 -88 -37.5t-37 -106.5v-273h-70v477h70v-60q48 66 135 66zM101 673q21 0 36 -13t15 -38q0 -20 -9 -46l-45 -120h-45l29 118q-32 11 -32 48q0 25 15 38t36 13z" />
<glyph unicode="&#x14a;" horiz-adv-x="605" d="M85 667h63l301 -520v520h72v-727q0 -63 -36 -96.5t-86 -33.5h-30v62h30q21 0 35.5 17t14.5 51v76l-292 504v-520h-72v667z" />
<glyph unicode="&#x14b;" horiz-adv-x="519" d="M280 483q77 0 126 -53.5t49 -156.5v-333q0 -63 -35.5 -96.5t-84.5 -33.5h-30v62h30q21 0 35.5 17t14.5 51v332q0 71 -32.5 108t-82.5 37q-51 0 -88 -37.5t-37 -106.5v-273h-70v477h70v-60q48 66 135 66z" />
<glyph unicode="&#x14c;" horiz-adv-x="599" d="M164 802h270v-56h-270v56zM535 438v-209q0 -50 -7 -79q-34 -156 -228 -156q-193 0 -228 155q-7 29 -7 80v209q0 51 7 80q35 155 228 155q194 0 228 -156q7 -29 7 -79zM461 438q0 50 -10 80q-28 85 -151 85t-151 -85q-10 -31 -10 -80v-209q0 -49 10 -80q28 -85 151 -85 t151 85q10 30 10 80v209z" />
<glyph unicode="&#x14d;" d="M109 612h270v-56h-270v56zM435 258v-39q0 -66 -8 -95q-17 -61 -64 -95.5t-118 -34.5t-118 34.5t-64 95.5q-8 29 -8 95v39q0 66 8 95q17 61 64 95.5t118 34.5t118 -34.5t64 -95.5q8 -29 8 -95zM365 219v39q0 66 -13 95q-29 64 -107 64t-107 -64q-13 -29 -13 -95v-39 q0 -66 13 -95q29 -64 107 -64t107 64q13 29 13 95z" />
<glyph unicode="&#x14e;" horiz-adv-x="599" d="M161 857h50q0 -35 24 -55t65 -20t65 20t24 55h50q0 -57 -40 -92t-99 -35t-99 35t-40 92zM535 438v-209q0 -50 -7 -79q-34 -156 -228 -156q-193 0 -228 155q-7 29 -7 80v209q0 51 7 80q35 155 228 155q194 0 228 -156q7 -29 7 -79zM461 438q0 50 -10 80q-28 85 -151 85 t-151 -85q-10 -31 -10 -80v-209q0 -49 10 -80q28 -85 151 -85t151 85q10 30 10 80v209z" />
<glyph unicode="&#x14f;" d="M106 667h50q0 -35 24 -55t65 -20t65 20t24 55h50q0 -57 -40 -92t-99 -35t-99 35t-40 92zM435 258v-39q0 -66 -8 -95q-17 -61 -64 -95.5t-118 -34.5t-118 34.5t-64 95.5q-8 29 -8 95v39q0 66 8 95q17 61 64 95.5t118 34.5t118 -34.5t64 -95.5q8 -29 8 -95zM365 219v39 q0 66 -13 95q-29 64 -107 64t-107 -64q-13 -29 -13 -95v-39q0 -66 13 -95q29 -64 107 -64t107 64q13 29 13 95z" />
<glyph unicode="&#x150;" horiz-adv-x="599" d="M462 857l-87 -121h-64l79 121h72zM326 857l-83 -121h-64l75 121h72zM535 438v-209q0 -50 -7 -79q-34 -156 -228 -156q-193 0 -228 155q-7 29 -7 80v209q0 51 7 80q35 155 228 155q194 0 228 -156q7 -29 7 -79zM461 438q0 50 -10 80q-28 85 -151 85t-151 -85 q-10 -31 -10 -80v-209q0 -49 10 -80q28 -85 151 -85t151 85q10 30 10 80v209z" />
<glyph unicode="&#x151;" d="M407 667l-87 -121h-64l79 121h72zM271 667l-83 -121h-64l75 121h72zM435 258v-39q0 -66 -8 -95q-17 -61 -64 -95.5t-118 -34.5t-118 34.5t-64 95.5q-8 29 -8 95v39q0 66 8 95q17 61 64 95.5t118 34.5t118 -34.5t64 -95.5q8 -29 8 -95zM365 219v39q0 66 -13 95 q-29 64 -107 64t-107 -64q-13 -29 -13 -95v-39q0 -66 13 -95q29 -64 107 -64t107 64q13 29 13 95z" />
<glyph unicode="&#x152;" horiz-adv-x="842" d="M460 667h317v-70h-245v-219h205v-70h-203v-238h244v-70h-318v57q-50 -63 -160 -63q-104 0 -169.5 55.5t-65.5 172.5v224q0 117 65.5 172t169.5 55q110 0 160 -63v57zM300 603q-161 0 -161 -157v-224q0 -158 161 -158q70 0 115 32.5t45 102.5v270q0 69 -45 101.5 t-115 32.5z" />
<glyph unicode="&#x153;" horiz-adv-x="739" d="M619 280q-2 64 -30 102.5t-79 38.5t-79 -38.5t-30 -102.5h218zM55 288q0 89 47 142t128 53q95 0 139 -82q37 82 141 82q175 0 175 -225v-38h-284q0 -76 29 -120t85 -44q61 0 114 36l34 -53q-63 -45 -148 -45q-104 0 -144 85q-45 -85 -141 -85q-81 0 -128 53t-47 142v99z M123 288v-99q0 -59 29 -95t78 -36t78 36t29 95v99q0 59 -29 95t-78 36t-78 -36t-29 -95z" />
<glyph unicode="&#x154;" horiz-adv-x="546" d="M362 857l-87 -121h-66l75 121h78zM272 327q131 0 131 135t-131 135h-123v-270h123zM272 667q94 0 149.5 -51t55.5 -154q0 -141 -106 -187l116 -275h-78l-109 258q-9 -1 -28 -1h-124v-257h-73v667h197z" />
<glyph unicode="&#x155;" horiz-adv-x="367" d="M307 667l-87 -121h-66l75 121h78zM313 412q-20 5 -53 5q-46 0 -77.5 -23.5t-42.5 -65.5q-5 -17 -5 -60v-268h-70v477h70v-60q48 66 135 66q28 0 53 -6z" />
<glyph unicode="&#x156;" horiz-adv-x="546" d="M277 -63q51 0 51 -46q0 -24 -9 -40l-45 -81h-45l29 78q-32 11 -32 43q0 46 51 46zM272 327q131 0 131 135t-131 135h-123v-270h123zM272 667q94 0 149.5 -51t55.5 -154q0 -141 -106 -187l116 -275h-78l-109 258q-9 -1 -28 -1h-124v-257h-73v667h197z" />
<glyph unicode="&#x157;" horiz-adv-x="367" d="M99 -63q51 0 51 -46q0 -24 -9 -40l-45 -81h-45l29 78q-32 11 -32 43q0 46 51 46zM313 412q-20 5 -53 5q-46 0 -77.5 -23.5t-42.5 -65.5q-5 -17 -5 -60v-268h-70v477h70v-60q48 66 135 66q28 0 53 -6z" />
<glyph unicode="&#x158;" horiz-adv-x="546" d="M216 736l-95 121h66l68 -77l68 77h66l-95 -121h-78zM272 327q131 0 131 135t-131 135h-123v-270h123zM272 667q94 0 149.5 -51t55.5 -154q0 -141 -106 -187l116 -275h-78l-109 258q-9 -1 -28 -1h-124v-257h-73v667h197z" />
<glyph unicode="&#x159;" horiz-adv-x="367" d="M161 546l-95 121h66l68 -77l68 77h66l-95 -121h-78zM313 412q-20 5 -53 5q-46 0 -77.5 -23.5t-42.5 -65.5q-5 -17 -5 -60v-268h-70v477h70v-60q48 66 135 66q28 0 53 -6z" />
<glyph unicode="&#x15a;" horiz-adv-x="530" d="M363 857l-87 -121h-66l75 121h78zM253 -6q-126 0 -200 71l47 53q60 -54 153 -54q64 0 101.5 32.5t37.5 89.5q0 99 -143 123q-83 14 -138.5 57t-55.5 122q0 90 58 137.5t143 47.5q122 0 190 -71l-48 -52q-53 53 -142 53q-56 0 -91.5 -29t-35.5 -86q0 -86 134 -111 q203 -38 203 -191q0 -88 -58 -140t-155 -52z" />
<glyph unicode="&#x15b;" horiz-adv-x="432" d="M317 667l-87 -121h-66l75 121h78zM368 446l-32 -59q-50 30 -126 30q-93 0 -93 -68q0 -30 22.5 -43.5t76.5 -23.5q167 -28 167 -145q0 -72 -52.5 -107.5t-120.5 -35.5q-103 0 -170 45l32 59q52 -38 138 -38q47 0 75 19t28 58q0 36 -27 53.5t-82 27.5q-23 4 -40 8t-40.5 14 t-39 23t-26.5 35.5t-11 50.5q0 68 50 101t113 33q94 0 158 -37z" />
<glyph unicode="&#x15c;" horiz-adv-x="530" d="M217 857h78l95 -121h-66l-68 77l-68 -77h-66zM253 -6q-126 0 -200 71l47 53q60 -54 153 -54q64 0 101.5 32.5t37.5 89.5q0 99 -143 123q-83 14 -138.5 57t-55.5 122q0 90 58 137.5t143 47.5q122 0 190 -71l-48 -52q-53 53 -142 53q-56 0 -91.5 -29t-35.5 -86 q0 -86 134 -111q203 -38 203 -191q0 -88 -58 -140t-155 -52z" />
<glyph unicode="&#x15d;" horiz-adv-x="432" d="M171 667h78l95 -121h-66l-68 77l-68 -77h-66zM368 446l-32 -59q-50 30 -126 30q-93 0 -93 -68q0 -30 22.5 -43.5t76.5 -23.5q167 -28 167 -145q0 -72 -52.5 -107.5t-120.5 -35.5q-103 0 -170 45l32 59q52 -38 138 -38q47 0 75 19t28 58q0 36 -27 53.5t-82 27.5 q-23 4 -40 8t-40.5 14t-39 23t-26.5 35.5t-11 50.5q0 68 50 101t113 33q94 0 158 -37z" />
<glyph unicode="&#x15e;" horiz-adv-x="530" d="M281 -5l-17 -32q47 -4 70.5 -19t23.5 -48q0 -87 -135 -87q-67 0 -107 15l27 51q33 -11 80 -11q39 0 58 6.5t19 25.5q0 34 -67 34h-40l33 65q-107 7 -173 70l47 53q60 -54 153 -54q64 0 101.5 32.5t37.5 89.5q0 99 -143 123q-83 14 -138.5 57t-55.5 122q0 90 58 137.5 t143 47.5q122 0 190 -71l-48 -52q-53 53 -142 53q-56 0 -91.5 -29t-35.5 -86q0 -86 134 -111q203 -38 203 -191q0 -81 -49.5 -132t-135.5 -59z" />
<glyph unicode="&#x15f;" horiz-adv-x="432" d="M368 446l-32 -59q-50 30 -126 30q-93 0 -93 -68q0 -30 22.5 -43.5t76.5 -23.5q167 -28 167 -145q0 -65 -43.5 -100.5t-104.5 -41.5l-17 -32q47 -4 70.5 -19t23.5 -48q0 -87 -135 -87q-67 0 -107 15l27 51q33 -11 80 -11q39 0 58 6.5t19 25.5q0 34 -67 34h-40l34 65 q-87 7 -141 44l32 59q52 -38 138 -38q47 0 75 19t28 58q0 36 -27 53.5t-82 27.5q-23 4 -40 8t-40.5 14t-39 23t-26.5 35.5t-11 50.5q0 68 50 101t113 33q94 0 158 -37z" />
<glyph unicode="&#x160;" horiz-adv-x="530" d="M217 736l-95 121h66l68 -77l68 77h66l-95 -121h-78zM253 -6q-126 0 -200 71l47 53q60 -54 153 -54q64 0 101.5 32.5t37.5 89.5q0 99 -143 123q-83 14 -138.5 57t-55.5 122q0 90 58 137.5t143 47.5q122 0 190 -71l-48 -52q-53 53 -142 53q-56 0 -91.5 -29t-35.5 -86 q0 -86 134 -111q203 -38 203 -191q0 -88 -58 -140t-155 -52z" />
<glyph unicode="&#x161;" horiz-adv-x="432" d="M171 546l-95 121h66l68 -77l68 77h66l-95 -121h-78zM368 446l-32 -59q-50 30 -126 30q-93 0 -93 -68q0 -30 22.5 -43.5t76.5 -23.5q167 -28 167 -145q0 -72 -52.5 -107.5t-120.5 -35.5q-103 0 -170 45l32 59q52 -38 138 -38q47 0 75 19t28 58q0 36 -27 53.5t-82 27.5 q-23 4 -40 8t-40.5 14t-39 23t-26.5 35.5t-11 50.5q0 68 50 101t113 33q94 0 158 -37z" />
<glyph unicode="&#x162;" horiz-adv-x="559" d="M55 667h450v-70h-188v-597h-9l-19 -37q47 -4 70.5 -19t23.5 -48q0 -87 -135 -87q-66 0 -107 15l27 51q33 -11 80 -11q39 0 58 6.5t19 25.5q0 34 -67 34h-40l36 70h-11v597h-188v70z" />
<glyph unicode="&#x163;" horiz-adv-x="377" d="M257 60q27 0 50 17l36 -56q-29 -21 -61 -25l-17 -33q47 -4 70.5 -19t23.5 -48q0 -87 -135 -87q-66 0 -107 15l27 51q33 -11 80 -11q39 0 58 6.5t19 25.5q0 34 -67 34h-40l34 66q-37 7 -62 30t-35 58q-6 22 -6 54v277h-80v62h80v104h70v-104h110v-62h-110v-277 q0 -30 8 -46q16 -32 54 -32z" />
<glyph unicode="&#x164;" horiz-adv-x="559" d="M241 736l-95 121h66l68 -77l68 77h66l-95 -121h-78zM55 667h450v-70h-188v-597h-74v597h-188v70z" />
<glyph unicode="&#x165;" horiz-adv-x="377" d="M385 673q21 0 36 -13t15 -38q0 -20 -9 -46l-45 -120h-45l29 118q-32 11 -32 48q0 25 15 38t36 13zM257 60q27 0 50 17l36 -56q-36 -27 -86 -27q-48 0 -81.5 24t-44.5 66q-6 22 -6 54v277h-80v62h80v104h70v-104h110v-62h-110v-277q0 -30 8 -46q16 -32 54 -32z" />
<glyph unicode="&#x166;" horiz-adv-x="559" d="M55 667h450v-70h-188v-244h121v-61h-121v-292h-74v292h-125v61h125v244h-188v70z" />
<glyph unicode="&#x167;" horiz-adv-x="409" d="M230 477h92v-62h-92v-97h135v-56h-135v-132q0 -31 15.5 -47.5t36.5 -16.5h60v-66h-60q-48 0 -83 33.5t-35 96.5v132h-119v56h119v97h-62v62h62v94h66v-94z" />
<glyph unicode="&#x168;" horiz-adv-x="569" d="M232 799q-20 0 -31.5 -14.5t-11.5 -38.5h-50q0 43 25 73t66 30q47 0 76 -41q12 -18 34 -18q17 0 29 13.5t12 38.5h50q0 -46 -28 -74t-65 -28q-47 0 -74 40q-12 19 -32 19zM500 667v-438q0 -50 -7 -79q-16 -76 -70 -116t-138 -40t-137.5 40t-70.5 115q-7 29 -7 80v438h74 v-438q0 -49 10 -80q28 -85 131 -85t131 85q10 30 10 80v438h74z" />
<glyph unicode="&#x169;" horiz-adv-x="479" d="M187 608q-20 0 -31.5 -14.5t-11.5 -38.5h-50q0 43 25 73t66 30q47 0 76 -41q12 -18 34 -18q17 0 29 13.5t12 38.5h50q0 -46 -28 -74t-65 -28q-47 0 -74 40q-12 19 -32 19zM130 477v-258q0 -66 11 -96q24 -63 99 -63t99 63q11 30 11 96v258h70v-258q0 -67 -7 -96 q-15 -61 -59.5 -95t-113.5 -34t-113.5 34t-59.5 95q-7 29 -7 96v258h70z" />
<glyph unicode="&#x16a;" horiz-adv-x="569" d="M149 802h270v-56h-270v56zM500 667v-438q0 -50 -7 -79q-16 -76 -70 -116t-138 -40t-137.5 40t-70.5 115q-7 29 -7 80v438h74v-438q0 -49 10 -80q28 -85 131 -85t131 85q10 30 10 80v438h74z" />
<glyph unicode="&#x16b;" horiz-adv-x="479" d="M104 611h270v-56h-270v56zM130 477v-258q0 -66 11 -96q24 -63 99 -63t99 63q11 30 11 96v258h70v-258q0 -67 -7 -96q-15 -61 -59.5 -95t-113.5 -34t-113.5 34t-59.5 95q-7 29 -7 96v258h70z" />
<glyph unicode="&#x16c;" horiz-adv-x="569" d="M146 857h50q0 -35 24 -55t65 -20t65 20t24 55h50q0 -57 -40 -92t-99 -35t-99 35t-40 92zM500 667v-438q0 -50 -7 -79q-16 -76 -70 -116t-138 -40t-137.5 40t-70.5 115q-7 29 -7 80v438h74v-438q0 -49 10 -80q28 -85 131 -85t131 85q10 30 10 80v438h74z" />
<glyph unicode="&#x16d;" horiz-adv-x="479" d="M101 666h50q0 -35 24 -55t65 -20t65 20t24 55h50q0 -57 -40 -92t-99 -35t-99 35t-40 92zM130 477v-258q0 -66 11 -96q24 -63 99 -63t99 63q11 30 11 96v258h70v-258q0 -67 -7 -96q-15 -61 -59.5 -95t-113.5 -34t-113.5 34t-59.5 95q-7 29 -7 96v258h70z" />
<glyph unicode="&#x16e;" horiz-adv-x="569" d="M285 843q-20 0 -32 -13t-12 -34q0 -20 12 -33t32 -13t32.5 13t12.5 33t-12.5 33.5t-32.5 13.5zM285 883q39 0 63 -23.5t24 -63.5q0 -39 -24 -63t-63 -24q-38 0 -62.5 24t-24.5 63t24 63t63 24zM500 667v-438q0 -50 -7 -79q-16 -76 -70 -116t-138 -40t-137.5 40t-70.5 115 q-7 29 -7 80v438h74v-438q0 -49 10 -80q28 -85 131 -85t131 85q10 30 10 80v438h74z" />
<glyph unicode="&#x16f;" horiz-adv-x="479" d="M240 652q-20 0 -32 -13t-12 -34q0 -20 12 -33t32 -13t32.5 13t12.5 33t-12.5 33.5t-32.5 13.5zM240 692q39 0 63 -23.5t24 -63.5q0 -39 -24 -63t-63 -24q-38 0 -62.5 24t-24.5 63t24 63t63 24zM130 477v-258q0 -66 11 -96q24 -63 99 -63t99 63q11 30 11 96v258h70v-258 q0 -67 -7 -96q-15 -61 -59.5 -95t-113.5 -34t-113.5 34t-59.5 95q-7 29 -7 96v258h70z" />
<glyph unicode="&#x170;" horiz-adv-x="569" d="M447 857l-87 -121h-64l79 121h72zM311 857l-83 -121h-64l75 121h72zM500 667v-438q0 -50 -7 -79q-16 -76 -70 -116t-138 -40t-137.5 40t-70.5 115q-7 29 -7 80v438h74v-438q0 -49 10 -80q28 -85 131 -85t131 85q10 30 10 80v438h74z" />
<glyph unicode="&#x171;" horiz-adv-x="479" d="M402 666l-87 -121h-64l79 121h72zM266 666l-83 -121h-64l75 121h72zM130 477v-258q0 -66 11 -96q24 -63 99 -63t99 63q11 30 11 96v258h70v-258q0 -67 -7 -96q-15 -61 -59.5 -95t-113.5 -34t-113.5 34t-59.5 95q-7 29 -7 96v258h70z" />
<glyph unicode="&#x172;" horiz-adv-x="569" d="M500 667v-438q0 -50 -7 -79q-15 -70 -61.5 -109.5t-119.5 -45.5q-50 -46 -50 -84q0 -20 11 -33.5t29 -13.5q17 0 28.5 10t26.5 31l41 -28q-11 -18 -18.5 -29t-29.5 -25t-48 -14q-43 0 -66.5 29t-23.5 70q0 49 34 88q-139 19 -169 153q-7 29 -7 80v438h74v-438 q0 -49 10 -80q28 -85 131 -85t131 85q10 30 10 80v438h74z" />
<glyph unicode="&#x173;" horiz-adv-x="479" d="M130 477v-258q0 -66 11 -96q24 -63 99 -63t99 63q11 30 11 96v258h70v-258q0 -67 -7 -96q-29 -114 -144 -127q-50 -46 -50 -85q0 -20 11 -33.5t29 -13.5q17 0 28.5 10t26.5 31l41 -28q-11 -18 -18.5 -29t-29.5 -25t-48 -14q-43 0 -66.5 29t-23.5 70q0 51 34 89 q-109 16 -136 126q-7 29 -7 96v258h70z" />
<glyph unicode="&#x174;" horiz-adv-x="801" d="M362 857h78l95 -121h-66l-68 77l-68 -77h-66zM35 667h75l142 -564l118 399h64l117 -398l141 563h75l-183 -667h-65l-117 390l-117 -390h-66z" />
<glyph unicode="&#x175;" horiz-adv-x="719" d="M321 667h78l95 -121h-66l-68 77l-68 -77h-66zM30 477h71l118 -374l111 374h60l112 -374l117 374h71l-158 -477h-60l-112 391l-111 -391h-60z" />
<glyph unicode="&#x176;" horiz-adv-x="540" d="M231 857h78l96 -121h-67l-67 77l-69 -77h-66zM35 667h81l154 -309l157 309h79l-199 -390v-277h-74v277z" />
<glyph unicode="&#x177;" horiz-adv-x="476" d="M199 666h78l96 -121h-67l-67 77l-69 -77h-66zM202 0l-172 477h74l135 -389l134 389h74l-238 -662h-74z" />
<glyph unicode="&#x178;" horiz-adv-x="540" d="M180 834q21 0 34.5 -13t13.5 -34t-13.5 -34t-34.5 -13t-33.5 13t-12.5 34t12.5 34t33.5 13zM361 834q21 0 33.5 -13t12.5 -34t-12.5 -34t-33.5 -13t-34.5 13t-13.5 34t13.5 34t34.5 13zM35 667h81l154 -309l157 309h79l-199 -390v-277h-74v277z" />
<glyph unicode="&#x179;" horiz-adv-x="539" d="M377 857l-87 -121h-66l75 121h78zM70 667h400v-50l-323 -547h333v-70h-420v50l322 547h-312v70z" />
<glyph unicode="&#x17a;" horiz-adv-x="439" d="M327 666l-87 -121h-66l75 121h78zM60 477h320v-50l-234 -361h234v-66h-320v50l234 361h-234v66z" />
<glyph unicode="&#x17b;" horiz-adv-x="539" d="M270 834q21 0 34 -13t13 -34t-13 -34t-34 -13q-20 0 -33.5 13t-13.5 34t13.5 34t33.5 13zM70 667h400v-50l-323 -547h333v-70h-420v50l322 547h-312v70z" />
<glyph unicode="&#x17c;" horiz-adv-x="439" d="M219 643q21 0 34.5 -13t13.5 -34t-13.5 -34t-34.5 -13q-20 0 -33 13t-13 34t13 34t33 13zM60 477h320v-50l-234 -361h234v-66h-320v50l234 361h-234v66z" />
<glyph unicode="&#x17d;" horiz-adv-x="539" d="M231 736l-95 121h66l68 -77l68 77h66l-95 -121h-78zM70 667h400v-50l-323 -547h333v-70h-420v50l322 547h-312v70z" />
<glyph unicode="&#x17e;" horiz-adv-x="439" d="M181 545l-95 121h66l68 -77l68 77h66l-95 -121h-78zM60 477h320v-50l-234 -361h234v-66h-320v50l234 361h-234v66z" />
<glyph unicode="&#x18f;" horiz-adv-x="579" d="M441 267h-302v-38q0 -50 10 -80q28 -85 141 -85t141 85q10 31 10 80v38zM290 673q183 0 218 -155q7 -29 7 -80v-209q0 -51 -7 -80q-35 -155 -218 -155q-184 0 -218 156q-7 29 -7 79v108h376v101q0 49 -10 80q-28 85 -141 85q-88 0 -137 -53l-48 52q64 71 185 71z" />
<glyph unicode="&#x192;" horiz-adv-x="369" d="M215 -54q0 -63 -35.5 -97t-84.5 -34h-60v62h60q21 0 35.5 17.5t14.5 51.5v470h-60v61h60v50q0 63 35.5 96.5t84.5 33.5h60v-62h-60q-21 0 -35.5 -17t-14.5 -51v-50h90v-61h-90v-470z" />
<glyph unicode="&#x1a9;" horiz-adv-x="500" d="M296 328l-141 -258h285v-70h-380v40l170 302l-170 285v40h379v-70h-284l141 -239v-30z" />
<glyph unicode="&#x1c4;" horiz-adv-x="991" d="M522 667h400v-50l-323 -547h333v-70h-420v50l322 547h-312v70zM431 468q0 33 -5 50q-21 79 -126 79h-151v-527h151q105 0 126 79q5 17 5 50v269zM75 667h225q86 0 138 -40.5t64 -108.5q3 -18 3 -50v-269q0 -32 -3 -50q-12 -68 -64 -108.5t-138 -40.5h-225v667zM428 736 l-95 121h66l68 -77l68 77h66l-95 -121h-78z" />
<glyph unicode="&#x1c5;" horiz-adv-x="927" d="M639 66h234v-66h-320v50l234 361h-234v66h320v-50zM431 468q0 33 -5 50q-21 79 -126 79h-151v-527h151q105 0 126 79q5 17 5 50v269zM75 667h225q86 0 138 -40.5t64 -108.5q3 -18 3 -50v-269q0 -32 -3 -50q-12 -68 -64 -108.5t-138 -40.5h-225v667zM428 736l-95 121h66 l68 -77l68 77h66l-95 -121h-78z" />
<glyph unicode="&#x1c6;" horiz-adv-x="844" d="M556 66h234v-66h-320v50l234 361h-234v66h320v-50zM351 736l-95 121h66l68 -77l68 77h66l-95 -121h-78zM240 417q-77 0 -104 -64q-11 -27 -11 -95v-39q0 -68 11 -95q27 -64 104 -64q76 0 103 63q12 28 12 96v39q0 68 -12 96q-27 63 -103 63zM425 667v-667h-70v45 q-42 -51 -125 -51q-63 0 -107 34.5t-60 95.5q-8 29 -8 95v39q0 66 8 95q16 61 60 95.5t107 34.5q83 0 125 -51v235h70z" />
<glyph unicode="&#x1c7;" horiz-adv-x="925" d="M75 667h74v-597h306v-70h-380v667zM856 199q0 -33 -3 -50q-12 -72 -63 -113.5t-129 -41.5q-116 0 -166 83l55 44q39 -57 111 -57q45 0 75.5 22.5t40.5 62.5q5 20 5 50v468h74v-468z" />
<glyph unicode="&#x1c8;" horiz-adv-x="644" d="M75 667h74v-597h306v-70h-380v667zM576 -60q0 -63 -35.5 -96.5t-84.5 -33.5h-30v62h30q21 0 35.5 17t14.5 51v537h70v-537zM539 634q21 0 34 -13t13 -34t-13 -34t-34 -13q-20 0 -33.5 13t-13.5 34t13.5 34t33.5 13z" />
<glyph unicode="&#x1c9;" horiz-adv-x="344" d="M65 667h70v-667h-70v667zM275 -60q0 -63 -35.5 -96.5t-84.5 -33.5h-30v62h30q21 0 35.5 17t14.5 51v537h70v-537zM239 634q21 0 34 -13t13 -34t-13 -34t-34 -13q-20 0 -33.5 13t-13.5 34t13.5 34t33.5 13z" />
<glyph unicode="&#x1ca;" horiz-adv-x="991" d="M75 667h63l301 -520v520h72v-667h-63l-301 520v-520h-72v667zM922 199q0 -33 -3 -50q-12 -72 -63 -113.5t-129 -41.5q-116 0 -166 83l55 44q39 -57 111 -57q45 0 75.5 22.5t40.5 62.5q5 20 5 50v468h74v-468z" />
<glyph unicode="&#x1cb;" horiz-adv-x="721" d="M75 667h63l301 -520v520h72v-667h-63l-301 520v-520h-72v667zM652 -60q0 -63 -35.5 -96.5t-84.5 -33.5h-30v62h30q21 0 35.5 17t14.5 51v537h70v-537zM616 634q21 0 34 -13t13 -34t-13 -34t-34 -13q-20 0 -33.5 13t-13.5 34t13.5 34t33.5 13z" />
<glyph unicode="&#x1cc;" horiz-adv-x="656" d="M551 634q21 0 34 -13t13 -34t-13 -34t-34 -13q-20 0 -33.5 13t-13.5 34t13.5 34t33.5 13zM586 -60q0 -63 -35.5 -96.5t-84.5 -33.5h-30v62h30q21 0 35.5 17t14.5 51v537h70v-537zM270 483q77 0 126 -53.5t49 -156.5v-273h-70v272q0 71 -32.5 108t-82.5 37 q-51 0 -88 -37.5t-37 -106.5v-273h-70v477h70v-60q48 66 135 66z" />
<glyph unicode="&#x1ea;" horiz-adv-x="599" d="M535 438v-209q0 -50 -7 -79q-30 -145 -200 -155q-49 -45 -49 -84q0 -20 11 -33.5t29 -13.5q17 0 28.5 10t26.5 31l41 -28q-11 -18 -18.5 -29t-29.5 -25t-48 -14q-43 0 -66.5 29t-23.5 70q0 50 33 88q-158 15 -190 153q-7 29 -7 80v209q0 51 7 80q35 155 228 155 q194 0 228 -156q7 -29 7 -79zM461 438q0 50 -10 80q-28 85 -151 85t-151 -85q-10 -31 -10 -80v-209q0 -49 10 -80q28 -85 151 -85t151 85q10 30 10 80v209z" />
<glyph unicode="&#x1eb;" d="M435 258v-39q0 -66 -8 -95q-15 -54 -54.5 -87.5t-98.5 -40.5q-50 -46 -50 -85q0 -20 11 -33.5t29 -13.5q17 0 28.5 10t26.5 31l41 -28q-11 -18 -18.5 -29t-29.5 -25t-48 -14q-43 0 -66.5 29t-23.5 70q0 51 34 89q-115 17 -145 127q-8 29 -8 95v39q0 66 8 95 q17 61 64 95.5t118 34.5t118 -34.5t64 -95.5q8 -29 8 -95zM365 219v39q0 66 -13 95q-29 64 -107 64t-107 -64q-13 -29 -13 -95v-39q0 -66 13 -95q29 -64 107 -64t107 64q13 29 13 95z" />
<glyph unicode="&#x1f1;" horiz-adv-x="991" d="M522 667h400v-50l-323 -547h333v-70h-420v50l322 547h-312v70zM431 468q0 33 -5 50q-21 79 -126 79h-151v-527h151q105 0 126 79q5 17 5 50v269zM75 667h225q86 0 138 -40.5t64 -108.5q3 -18 3 -50v-269q0 -32 -3 -50q-12 -68 -64 -108.5t-138 -40.5h-225v667z" />
<glyph unicode="&#x1f2;" horiz-adv-x="927" d="M639 66h234v-66h-320v50l234 361h-234v66h320v-50zM431 468q0 33 -5 50q-21 79 -126 79h-151v-527h151q105 0 126 79q5 17 5 50v269zM75 667h225q86 0 138 -40.5t64 -108.5q3 -18 3 -50v-269q0 -32 -3 -50q-12 -68 -64 -108.5t-138 -40.5h-225v667z" />
<glyph unicode="&#x1f3;" horiz-adv-x="844" d="M556 66h234v-66h-320v50l234 361h-234v66h320v-50zM240 417q-77 0 -104 -64q-11 -27 -11 -95v-39q0 -68 11 -95q27 -64 104 -64q76 0 103 63q12 28 12 96v39q0 68 -12 96q-27 63 -103 63zM425 667v-667h-70v45q-42 -51 -125 -51q-63 0 -107 34.5t-60 95.5q-8 29 -8 95v39 q0 66 8 95q16 61 60 95.5t107 34.5q83 0 125 -51v235h70z" />
<glyph unicode="&#x1f4;" horiz-adv-x="579" d="M397 857l-87 -121h-66l75 121h78zM290 673q121 0 185 -71l-48 -52q-49 53 -137 53q-113 0 -141 -85q-10 -31 -10 -80v-209q0 -49 10 -80q28 -85 141 -85t141 85q10 30 10 80v58h-138v70h212v-128q0 -50 -7 -79q-34 -156 -218 -156q-183 0 -218 155q-7 29 -7 80v209 q0 51 7 80q35 155 218 155z" />
<glyph unicode="&#x1f5;" d="M337 667l-87 -121h-66l75 121h78zM240 417q-77 0 -104 -64q-11 -27 -11 -95v-39q0 -68 11 -95q27 -64 104 -64q76 0 103 63q12 28 12 96v39q0 68 -12 96q-27 63 -103 63zM235 -125q78 0 107 64q13 29 13 95v11q-42 -51 -125 -51q-63 0 -107 34.5t-60 95.5q-8 29 -8 95v39 q0 66 8 95q16 61 60 95.5t107 34.5q83 0 125 -51v45h70v-443q0 -66 -8 -95q-17 -61 -64 -95.5t-118 -34.5q-100 0 -163 45l36 55q50 -34 127 -34z" />
<glyph unicode="&#x200;" horiz-adv-x="608" d="M143 857h72l79 -121h-64zM279 857h72l75 -121h-64zM305 571l-115 -336h229zM273 667h64l237 -667h-75l-57 165h-274l-57 -165h-76z" />
<glyph unicode="&#x201;" horiz-adv-x="452" d="M56 666h72l79 -121h-64zM192 666h72l75 -121h-64zM325 229q-35 4 -71 4q-151 0 -151 -90q0 -37 26.5 -60.5t70.5 -23.5q41 0 73 20.5t45 63.5q7 24 7 67v19zM218 483q139 0 168 -130q7 -28 7 -95v-258h-68v52q-56 -58 -133 -58q-67 0 -112 41.5t-45 107.5q0 77 56.5 114 t154.5 37q46 0 79 -5q0 37 -8 63q-22 67 -99 67q-69 0 -121 -32l-34 55q64 41 155 41z" />
<glyph unicode="&#x202;" horiz-adv-x="608" d="M166 736q0 57 40 92t99 35t99 -35t40 -92h-50q0 35 -24 55t-65 20t-65 -20t-24 -55h-50zM305 571l-115 -336h229zM273 667h64l237 -667h-75l-57 165h-274l-57 -165h-76z" />
<glyph unicode="&#x203;" horiz-adv-x="452" d="M79 545q0 57 40 92t99 35t99 -35t40 -92h-50q0 35 -24 55t-65 20t-65 -20t-24 -55h-50zM325 229q-35 4 -71 4q-151 0 -151 -90q0 -37 26.5 -60.5t70.5 -23.5q41 0 73 20.5t45 63.5q7 24 7 67v19zM218 483q139 0 168 -130q7 -28 7 -95v-258h-68v52q-56 -58 -133 -58 q-67 0 -112 41.5t-45 107.5q0 77 56.5 114t154.5 37q46 0 79 -5q0 37 -8 63q-22 67 -99 67q-69 0 -121 -32l-34 55q64 41 155 41z" />
<glyph unicode="&#x204;" horiz-adv-x="500" d="M89 857h72l79 -121h-64zM225 857h72l75 -121h-64zM75 667h359v-70h-287v-219h237v-70h-235v-238h286v-70h-360v667z" />
<glyph unicode="&#x205;" d="M83 667h72l79 -121h-64zM219 667h72l75 -121h-64zM123 282h244q0 44 -13 71q-30 66 -109 66t-109 -66q-13 -27 -13 -71zM250 58q76 0 128 35l35 -54q-63 -45 -163 -45q-74 0 -122 34t-65 96q-8 29 -8 95v39q0 66 8 95q17 61 64 95.5t118 34.5t118 -34.5t64 -95.5 q8 -29 8 -95v-40h-312q0 -65 13 -94q30 -66 114 -66z" />
<glyph unicode="&#x206;" horiz-adv-x="500" d="M112 736q0 57 40 92t99 35t99 -35t40 -92h-50q0 35 -24 55t-65 20t-65 -20t-24 -55h-50zM75 667h359v-70h-287v-219h237v-70h-235v-238h286v-70h-360v667z" />
<glyph unicode="&#x207;" d="M106 546q0 57 40 92t99 35t99 -35t40 -92h-50q0 35 -24 55t-65 20t-65 -20t-24 -55h-50zM123 282h244q0 44 -13 71q-30 66 -109 66t-109 -66q-13 -27 -13 -71zM250 58q76 0 128 35l35 -54q-63 -45 -163 -45q-74 0 -122 34t-65 96q-8 29 -8 95v39q0 66 8 95q17 61 64 95.5 t118 34.5t118 -34.5t64 -95.5q8 -29 8 -95v-40h-312q0 -65 13 -94q30 -66 114 -66z" />
<glyph unicode="&#x208;" horiz-adv-x="223" d="M-50 857h72l79 -121h-64zM86 857h72l75 -121h-64zM149 667v-667h-74v667h74z" />
<glyph unicode="&#x209;" horiz-adv-x="213" d="M-55 667h72l79 -121h-64zM81 667h72l75 -121h-64zM72 477h70v-477h-70v477z" />
<glyph unicode="&#x20a;" horiz-adv-x="223" d="M-27 736q0 57 40 92t99 35t99 -35t40 -92h-50q0 35 -24 55t-65 20t-65 -20t-24 -55h-50zM149 667v-667h-74v667h74z" />
<glyph unicode="&#x20b;" horiz-adv-x="213" d="M-32 546q0 57 40 92t99 35t99 -35t40 -92h-50q0 35 -24 55t-65 20t-65 -20t-24 -55h-50zM72 477h70v-477h-70v477z" />
<glyph unicode="&#x20c;" horiz-adv-x="599" d="M138 857h72l79 -121h-64zM274 857h72l75 -121h-64zM535 438v-209q0 -50 -7 -79q-34 -156 -228 -156q-193 0 -228 155q-7 29 -7 80v209q0 51 7 80q35 155 228 155q194 0 228 -156q7 -29 7 -79zM461 438q0 50 -10 80q-28 85 -151 85t-151 -85q-10 -31 -10 -80v-209 q0 -49 10 -80q28 -85 151 -85t151 85q10 30 10 80v209z" />
<glyph unicode="&#x20d;" d="M83 667h72l79 -121h-64zM219 667h72l75 -121h-64zM435 258v-39q0 -66 -8 -95q-17 -61 -64 -95.5t-118 -34.5t-118 34.5t-64 95.5q-8 29 -8 95v39q0 66 8 95q17 61 64 95.5t118 34.5t118 -34.5t64 -95.5q8 -29 8 -95zM365 219v39q0 66 -13 95q-29 64 -107 64t-107 -64 q-13 -29 -13 -95v-39q0 -66 13 -95q29 -64 107 -64t107 64q13 29 13 95z" />
<glyph unicode="&#x20e;" horiz-adv-x="599" d="M161 736q0 57 40 92t99 35t99 -35t40 -92h-50q0 35 -24 55t-65 20t-65 -20t-24 -55h-50zM535 438v-209q0 -50 -7 -79q-34 -156 -228 -156q-193 0 -228 155q-7 29 -7 80v209q0 51 7 80q35 155 228 155q194 0 228 -156q7 -29 7 -79zM461 438q0 50 -10 80q-28 85 -151 85 t-151 -85q-10 -31 -10 -80v-209q0 -49 10 -80q28 -85 151 -85t151 85q10 30 10 80v209z" />
<glyph unicode="&#x20f;" d="M106 546q0 57 40 92t99 35t99 -35t40 -92h-50q0 35 -24 55t-65 20t-65 -20t-24 -55h-50zM435 258v-39q0 -66 -8 -95q-17 -61 -64 -95.5t-118 -34.5t-118 34.5t-64 95.5q-8 29 -8 95v39q0 66 8 95q17 61 64 95.5t118 34.5t118 -34.5t64 -95.5q8 -29 8 -95zM365 219v39 q0 66 -13 95q-29 64 -107 64t-107 -64q-13 -29 -13 -95v-39q0 -66 13 -95q29 -64 107 -64t107 64q13 29 13 95z" />
<glyph unicode="&#x210;" horiz-adv-x="546" d="M93 857h72l79 -121h-64zM229 857h72l75 -121h-64zM272 327q131 0 131 135t-131 135h-123v-270h123zM272 667q94 0 149.5 -51t55.5 -154q0 -141 -106 -187l116 -275h-78l-109 258q-9 -1 -28 -1h-124v-257h-73v667h197z" />
<glyph unicode="&#x211;" horiz-adv-x="367" d="M38 667h72l79 -121h-64zM174 667h72l75 -121h-64zM313 412q-20 5 -53 5q-46 0 -77.5 -23.5t-42.5 -65.5q-5 -17 -5 -60v-268h-70v477h70v-60q48 66 135 66q28 0 53 -6z" />
<glyph unicode="&#x212;" horiz-adv-x="546" d="M116 736q0 57 40 92t99 35t99 -35t40 -92h-50q0 35 -24 55t-65 20t-65 -20t-24 -55h-50zM272 327q131 0 131 135t-131 135h-123v-270h123zM272 667q94 0 149.5 -51t55.5 -154q0 -141 -106 -187l116 -275h-78l-109 258q-9 -1 -28 -1h-124v-257h-73v667h197z" />
<glyph unicode="&#x213;" horiz-adv-x="367" d="M61 546q0 57 40 92t99 35t99 -35t40 -92h-50q0 35 -24 55t-65 20t-65 -20t-24 -55h-50zM313 412q-20 5 -53 5q-46 0 -77.5 -23.5t-42.5 -65.5q-5 -17 -5 -60v-268h-70v477h70v-60q48 66 135 66q28 0 53 -6z" />
<glyph unicode="&#x214;" horiz-adv-x="569" d="M123 857h72l79 -121h-64zM259 857h72l75 -121h-64zM500 667v-438q0 -50 -7 -79q-16 -76 -70 -116t-138 -40t-137.5 40t-70.5 115q-7 29 -7 80v438h74v-438q0 -49 10 -80q28 -85 131 -85t131 85q10 30 10 80v438h74z" />
<glyph unicode="&#x215;" horiz-adv-x="479" d="M78 666h72l79 -121h-64zM214 666h72l75 -121h-64zM130 477v-258q0 -66 11 -96q24 -63 99 -63t99 63q11 30 11 96v258h70v-258q0 -67 -7 -96q-15 -61 -59.5 -95t-113.5 -34t-113.5 34t-59.5 95q-7 29 -7 96v258h70z" />
<glyph unicode="&#x216;" horiz-adv-x="569" d="M146 736q0 57 40 92t99 35t99 -35t40 -92h-50q0 35 -24 55t-65 20t-65 -20t-24 -55h-50zM500 667v-438q0 -50 -7 -79q-16 -76 -70 -116t-138 -40t-137.5 40t-70.5 115q-7 29 -7 80v438h74v-438q0 -49 10 -80q28 -85 131 -85t131 85q10 30 10 80v438h74z" />
<glyph unicode="&#x217;" horiz-adv-x="479" d="M101 545q0 57 40 92t99 35t99 -35t40 -92h-50q0 35 -24 55t-65 20t-65 -20t-24 -55h-50zM130 477v-258q0 -66 11 -96q24 -63 99 -63t99 63q11 30 11 96v258h70v-258q0 -67 -7 -96q-15 -61 -59.5 -95t-113.5 -34t-113.5 34t-59.5 95q-7 29 -7 96v258h70z" />
<glyph unicode="&#x218;" horiz-adv-x="530" d="M256 -63q51 0 51 -46q0 -24 -9 -40l-45 -81h-45l29 78q-32 11 -32 43q0 46 51 46zM253 -6q-126 0 -200 71l47 53q60 -54 153 -54q64 0 101.5 32.5t37.5 89.5q0 99 -143 123q-83 14 -138.5 57t-55.5 122q0 90 58 137.5t143 47.5q122 0 190 -71l-48 -52q-53 53 -142 53 q-56 0 -91.5 -29t-35.5 -86q0 -86 134 -111q203 -38 203 -191q0 -88 -58 -140t-155 -52z" />
<glyph unicode="&#x219;" horiz-adv-x="432" d="M210 -63q51 0 51 -46q0 -24 -9 -40l-45 -81h-45l29 78q-32 11 -32 43q0 46 51 46zM368 446l-32 -59q-50 30 -126 30q-93 0 -93 -68q0 -30 22.5 -43.5t76.5 -23.5q167 -28 167 -145q0 -72 -52.5 -107.5t-120.5 -35.5q-103 0 -170 45l32 59q52 -38 138 -38q47 0 75 19 t28 58q0 36 -27 53.5t-82 27.5q-23 4 -40 8t-40.5 14t-39 23t-26.5 35.5t-11 50.5q0 68 50 101t113 33q94 0 158 -37z" />
<glyph unicode="&#x21a;" horiz-adv-x="559" d="M281 -63q51 0 51 -46q0 -24 -9 -40l-45 -81h-45l29 78q-32 11 -32 43q0 46 51 46zM55 667h450v-70h-188v-597h-74v597h-188v70z" />
<glyph unicode="&#x21b;" horiz-adv-x="377" d="M257 -63q51 0 51 -46q0 -24 -9 -40l-45 -81h-45l29 78q-32 11 -32 43q0 46 51 46zM257 60q27 0 50 17l36 -56q-36 -27 -86 -27q-48 0 -81.5 24t-44.5 66q-6 22 -6 54v277h-80v62h80v104h70v-104h110v-62h-110v-277q0 -30 8 -46q16 -32 54 -32z" />
<glyph unicode="&#x237;" horiz-adv-x="224" d="M150 -60q0 -63 -35.5 -96.5t-84.5 -33.5h-30v62h30q21 0 35.5 17t14.5 51v537h70v-537z" />
<glyph unicode="&#x259;" d="M367 195h-244q2 -47 13 -71q30 -66 109 -66t109 66q11 24 13 71zM240 419q-76 0 -128 -35l-35 54q63 45 163 45q74 0 122 -34.5t65 -95.5q8 -29 8 -95v-39q0 -66 -8 -95q-17 -61 -64.5 -95.5t-117.5 -34.5t-117.5 34.5t-64.5 95.5q-8 29 -8 95v40h312q0 67 -13 94 q-30 66 -114 66z" />
<glyph unicode="&#x2bc;" horiz-adv-x="201" d="M101 673q21 0 36 -13t15 -38q0 -20 -9 -46l-45 -120h-45l29 118q-32 11 -32 48q0 25 15 38t36 13z" />
<glyph unicode="&#x2c6;" horiz-adv-x="367" d="M145 667h78l95 -121h-66l-68 77l-68 -77h-66z" />
<glyph unicode="&#x2c7;" horiz-adv-x="367" d="M145 546l-95 121h66l68 -77l68 77h66l-95 -121h-78z" />
<glyph unicode="&#x2d8;" horiz-adv-x="377" d="M50 667h50q0 -35 24 -55t65 -20t65 20t24 55h50q0 -57 -40 -92t-99 -35t-99 35t-40 92z" />
<glyph unicode="&#x2d9;" horiz-adv-x="193" d="M97 644q21 0 34 -13t13 -34t-13 -34t-34 -13q-20 0 -33.5 13t-13.5 34t13.5 34t33.5 13z" />
<glyph unicode="&#x2da;" horiz-adv-x="279" d="M140 653q-20 0 -32 -13t-12 -34q0 -20 12 -33t32 -13t32.5 13t12.5 33t-12.5 33.5t-32.5 13.5zM140 693q39 0 63 -23.5t24 -63.5q0 -39 -24 -63t-63 -24q-38 0 -62.5 24t-24.5 63t24 63t63 24z" />
<glyph unicode="&#x2db;" horiz-adv-x="285" d="M155 0q-55 -49 -55 -89q0 -20 11 -33.5t29 -13.5q17 0 28.5 10t26.5 31l41 -28q-11 -18 -18.5 -29t-29.5 -25t-48 -14q-43 0 -66.5 29t-23.5 70q0 52 37 92h68z" />
<glyph unicode="&#x2dc;" horiz-adv-x="391" d="M143 609q-20 0 -31.5 -14.5t-11.5 -38.5h-50q0 43 25 73t66 30q47 0 76 -41q12 -18 34 -18q17 0 29 13.5t12 38.5h50q0 -46 -28 -74t-65 -28q-47 0 -74 40q-12 19 -32 19z" />
<glyph unicode="&#x2dd;" horiz-adv-x="382" d="M333 667l-87 -121h-64l79 121h72zM197 667l-83 -121h-64l75 121h72z" />
<glyph unicode="&#x300;" horiz-adv-x="252" d="M50 667h78l75 -121h-66z" />
<glyph unicode="&#x301;" horiz-adv-x="252" d="M203 667l-87 -121h-66l75 121h78z" />
<glyph unicode="&#x302;" horiz-adv-x="367" d="M145 667h78l95 -121h-66l-68 77l-68 -77h-66z" />
<glyph unicode="&#x304;" horiz-adv-x="369" d="M50 612h270v-56h-270v56z" />
<glyph unicode="&#x307;" horiz-adv-x="193" d="M97 644q21 0 34 -13t13 -34t-13 -34t-34 -13q-20 0 -33.5 13t-13.5 34t13.5 34t33.5 13z" />
<glyph unicode="&#x30f;" horiz-adv-x="382" d="M50 667h72l79 -121h-64zM186 667h72l75 -121h-64z" />
<glyph unicode="&#x311;" horiz-adv-x="377" d="M50 546q0 57 40 92t99 35t99 -35t40 -92h-50q0 35 -24 55t-65 20t-65 -20t-24 -55h-50z" />
<glyph unicode="&#x312;" horiz-adv-x="201" d="M101 552q-51 0 -51 46q0 24 9 40l45 81h45l-29 -78q32 -11 32 -43q0 -46 -51 -46z" />
<glyph unicode="&#x315;" horiz-adv-x="201" d="M101 673q21 0 36 -13t15 -38q0 -20 -9 -46l-45 -120h-45l29 118q-32 11 -32 48q0 25 15 38t36 13z" />
<glyph unicode="&#x323;" horiz-adv-x="201" d="M101 -85q23 0 37 -14.5t14 -36.5t-14 -36.5t-37 -14.5t-37 14.5t-14 36.5t14 36.5t37 14.5z" />
<glyph unicode="&#x326;" horiz-adv-x="201" d="M101 -63q51 0 51 -46q0 -24 -9 -40l-45 -81h-45l29 78q-32 11 -32 43q0 46 51 46z" />
<glyph unicode="&#x3a9;" horiz-adv-x="599" d="M250 0h-185v64h77q-77 75 -77 238v144q0 117 65.5 172t169.5 55t169.5 -55t65.5 -172v-144q0 -163 -77 -238h77v-64h-185v64q42 0 76.5 64t34.5 174v144q0 157 -161 157t-161 -157v-144q0 -110 34.5 -174t76.5 -64v-64z" />
<glyph unicode="&#x3b1;" horiz-adv-x="548" d="M250 417q-51 0 -88 -37.5t-37 -106.5v-69q0 -69 37 -106.5t88 -37.5t88 37.5t37 106.5v68q0 70 -37 107.5t-88 37.5zM375 477h68v-347q0 -31 15 -47.5t36 -16.5h10v-66h-10q-35 0 -62 19t-39 57q-51 -82 -153 -82q-78 0 -131.5 54t-53.5 156v68q0 102 53.5 156.5 t131.5 54.5q87 0 135 -66v60z" />
<glyph unicode="&#x3b2;" horiz-adv-x="529" d="M135 0v-185h-70v659q0 84 52 138.5t143 54.5q88 0 137 -50t49 -130q0 -45 -21.5 -83.5t-55.5 -59.5q44 -15 70 -58.5t26 -96.5q0 -83 -52 -136t-143 -53h-135zM270 66q59 0 92 34t33 89q0 50 -37 86t-98 36h-65v64h65q56 0 86 32.5t30 80.5q0 50 -30.5 81.5t-85.5 31.5 q-59 0 -92 -35.5t-33 -91.5v-408h135z" />
<glyph unicode="&#x3b3;" horiz-adv-x="575" d="M45 477h30q36 0 65.5 -18.5t43.5 -54.5l127 -323l156 396h74l-193 -477v-185h-74v185l-155 383q-13 32 -44 32h-30v62z" />
<glyph unicode="&#x3bc;" horiz-adv-x="559" d="M145 55v-240h-70v662h70v-273q0 -70 35 -107t85 -37t85 37t35 107v273h70v-353q0 -32 14.5 -48t35.5 -16h10v-66h-10q-35 0 -62.5 19t-39.5 55q-44 -74 -138 -74q-75 0 -120 61z" />
<glyph unicode="&#x3c0;" horiz-adv-x="539" d="M430 124q0 -32 14.5 -48t35.5 -16h10v-66h-10q-49 0 -84.5 33.5t-35.5 96.5v287h-180v-411h-70v411h-60v66h430v-66h-50v-287z" />
<glyph unicode="&#x1e0c;" horiz-adv-x="569" d="M276 -85q22 0 36.5 -14.5t14.5 -36.5t-14.5 -36.5t-36.5 -14.5t-36.5 14.5t-14.5 36.5t14.5 36.5t36.5 14.5zM431 468q0 33 -5 50q-21 79 -126 79h-151v-527h151q105 0 126 79q5 17 5 50v269zM75 667h225q86 0 138 -40.5t64 -108.5q3 -18 3 -50v-269q0 -32 -3 -50 q-12 -68 -64 -108.5t-138 -40.5h-225v667z" />
<glyph unicode="&#x1e0d;" d="M229 -85q23 0 37 -14.5t14 -36.5t-14 -36.5t-37 -14.5t-37 14.5t-14 36.5t14 36.5t37 14.5zM240 417q-77 0 -104 -64q-11 -27 -11 -95v-39q0 -68 11 -95q27 -64 104 -64q76 0 103 63q12 28 12 96v39q0 68 -12 96q-27 63 -103 63zM425 667v-667h-70v45q-42 -51 -125 -51 q-63 0 -107 34.5t-60 95.5q-8 29 -8 95v39q0 66 8 95q16 61 60 95.5t107 34.5q83 0 125 -51v235h70z" />
<glyph unicode="&#x1e24;" horiz-adv-x="589" d="M294 -85q22 0 36.5 -14.5t14.5 -36.5t-14.5 -36.5t-36.5 -14.5t-36.5 14.5t-14.5 36.5t14.5 36.5t36.5 14.5zM75 667h74v-289h292v289h74v-667h-74v308h-292v-308h-74v667z" />
<glyph unicode="&#x1e25;" horiz-adv-x="484" d="M244 -85q22 0 36.5 -14.5t14.5 -36.5t-14.5 -36.5t-36.5 -14.5t-36.5 14.5t-14.5 36.5t14.5 36.5t36.5 14.5zM65 667h70v-235q41 51 120 51q63 0 105.5 -34.5t57.5 -95.5q7 -29 7 -95v-258h-70v258q0 68 -10 95q-24 64 -100 64t-100 -64q-10 -27 -10 -95v-258h-70v667z " />
<glyph unicode="&#x1e44;" horiz-adv-x="589" d="M294 834q21 0 34.5 -13t13.5 -34t-13.5 -34t-34.5 -13q-20 0 -33 13t-13 34t13 34t33 13zM75 667h65l301 -520v520h74v-667h-65l-301 520v-520h-74v667z" />
<glyph unicode="&#x1e45;" horiz-adv-x="484" d="M244 644q21 0 34.5 -13t13.5 -34t-13.5 -34t-34.5 -13q-20 0 -33 13t-13 34t13 34t33 13zM65 477h70v-45q40 51 120 51q63 0 105.5 -34.5t57.5 -95.5q7 -29 7 -95v-258h-70v258q0 68 -10 95q-26 64 -100 64t-100 -64q-10 -27 -10 -95v-258h-70v477z" />
<glyph unicode="&#x1e5a;" horiz-adv-x="546" d="M276 -85q22 0 36.5 -14.5t14.5 -36.5t-14.5 -36.5t-36.5 -14.5t-36.5 14.5t-14.5 36.5t14.5 36.5t36.5 14.5zM272 327q131 0 131 135t-131 135h-123v-270h123zM272 667q94 0 149.5 -51t55.5 -154q0 -141 -106 -187l116 -275h-78l-109 258q-9 -1 -28 -1h-124v-257h-73v667 h197z" />
<glyph unicode="&#x1e5b;" horiz-adv-x="367" d="M98 -85q22 0 36.5 -14.5t14.5 -36.5t-14.5 -36.5t-36.5 -14.5t-36.5 14.5t-14.5 36.5t14.5 36.5t36.5 14.5zM313 412q-20 5 -53 5q-46 0 -77.5 -23.5t-42.5 -65.5q-5 -17 -5 -60v-268h-70v477h70v-60q48 66 135 66q28 0 53 -6z" />
<glyph unicode="&#x1e62;" horiz-adv-x="530" d="M255 -85q23 0 37 -14.5t14 -36.5t-14 -36.5t-37 -14.5t-37 14.5t-14 36.5t14 36.5t37 14.5zM253 -6q-126 0 -200 71l47 53q60 -54 153 -54q64 0 101.5 32.5t37.5 89.5q0 99 -143 123q-83 14 -138.5 57t-55.5 122q0 90 58 137.5t143 47.5q122 0 190 -71l-48 -52 q-53 53 -142 53q-56 0 -91.5 -29t-35.5 -86q0 -86 134 -111q203 -38 203 -191q0 -88 -58 -140t-155 -52z" />
<glyph unicode="&#x1e63;" horiz-adv-x="432" d="M209 -85q23 0 37 -14.5t14 -36.5t-14 -36.5t-37 -14.5t-37 14.5t-14 36.5t14 36.5t37 14.5zM368 446l-32 -59q-50 30 -126 30q-93 0 -93 -68q0 -30 22.5 -43.5t76.5 -23.5q167 -28 167 -145q0 -72 -52.5 -107.5t-120.5 -35.5q-103 0 -170 45l32 59q52 -38 138 -38 q47 0 75 19t28 58q0 36 -27 53.5t-82 27.5q-23 4 -40 8t-40.5 14t-39 23t-26.5 35.5t-11 50.5q0 68 50 101t113 33q94 0 158 -37z" />
<glyph unicode="&#x1e6c;" horiz-adv-x="559" d="M280 -85q22 0 36.5 -14.5t14.5 -36.5t-14.5 -36.5t-36.5 -14.5t-36.5 14.5t-14.5 36.5t14.5 36.5t36.5 14.5zM55 667h450v-70h-188v-597h-74v597h-188v70z" />
<glyph unicode="&#x1e6d;" horiz-adv-x="377" d="M256 -85q22 0 36.5 -14.5t14.5 -36.5t-14.5 -36.5t-36.5 -14.5t-36.5 14.5t-14.5 36.5t14.5 36.5t36.5 14.5zM257 60q27 0 50 17l36 -56q-36 -27 -86 -27q-48 0 -81.5 24t-44.5 66q-6 22 -6 54v277h-80v62h80v104h70v-104h110v-62h-110v-277q0 -30 8 -46q16 -32 54 -32z " />
<glyph unicode="&#x1e80;" horiz-adv-x="801" d="M294 857h78l75 -121h-66zM35 667h75l142 -564l118 399h64l117 -398l141 563h75l-183 -667h-65l-117 390l-117 -390h-66z" />
<glyph unicode="&#x1e81;" horiz-adv-x="719" d="M253 667h78l75 -121h-66zM30 477h71l118 -374l111 374h60l112 -374l117 374h71l-158 -477h-60l-112 391l-111 -391h-60z" />
<glyph unicode="&#x1e82;" horiz-adv-x="801" d="M508 857l-87 -121h-66l75 121h78zM35 667h75l142 -564l118 399h64l117 -398l141 563h75l-183 -667h-65l-117 390l-117 -390h-66z" />
<glyph unicode="&#x1e83;" horiz-adv-x="719" d="M467 667l-87 -121h-66l75 121h78zM30 477h71l118 -374l111 374h60l112 -374l117 374h71l-158 -477h-60l-112 391l-111 -391h-60z" />
<glyph unicode="&#x1e84;" horiz-adv-x="801" d="M311 834q21 0 34 -13t13 -34t-13 -34t-34 -13t-34 13t-13 34t13 34t34 13zM491 834q21 0 34 -13t13 -34t-13 -34t-34 -13t-34 13t-13 34t13 34t34 13zM35 667h75l142 -564l118 399h64l117 -398l141 563h75l-183 -667h-65l-117 390l-117 -390h-66z" />
<glyph unicode="&#x1e85;" horiz-adv-x="719" d="M270 644q21 0 34 -13t13 -34t-13 -34t-34 -13t-34 13t-13 34t13 34t34 13zM450 644q21 0 34 -13t13 -34t-13 -34t-34 -13t-34 13t-13 34t13 34t34 13zM30 477h71l118 -374l111 374h60l112 -374l117 374h71l-158 -477h-60l-112 391l-111 -391h-60z" />
<glyph unicode="&#x1e92;" horiz-adv-x="539" d="M269 -85q23 0 37 -14.5t14 -36.5t-14 -36.5t-37 -14.5t-37 14.5t-14 36.5t14 36.5t37 14.5zM70 667h400v-50l-323 -547h333v-70h-420v50l322 547h-312v70z" />
<glyph unicode="&#x1e93;" horiz-adv-x="439" d="M221 -85q23 0 37 -14.5t14 -36.5t-14 -36.5t-37 -14.5t-37 14.5t-14 36.5t14 36.5t37 14.5zM60 477h320v-50l-234 -361h234v-66h-320v50l234 361h-234v66z" />
<glyph unicode="&#x1eb8;" horiz-adv-x="500" d="M250 -85q22 0 36.5 -14.5t14.5 -36.5t-14.5 -36.5t-36.5 -14.5t-36.5 14.5t-14.5 36.5t14.5 36.5t36.5 14.5zM75 667h359v-70h-287v-219h237v-70h-235v-238h286v-70h-360v667z" />
<glyph unicode="&#x1eb9;" d="M249 -85q23 0 37 -14.5t14 -36.5t-14 -36.5t-37 -14.5t-37 14.5t-14 36.5t14 36.5t37 14.5zM123 282h244q0 44 -13 71q-30 66 -109 66t-109 -66q-13 -27 -13 -71zM250 58q76 0 128 35l35 -54q-63 -45 -163 -45q-74 0 -122 34t-65 96q-8 29 -8 95v39q0 66 8 95 q17 61 64 95.5t118 34.5t118 -34.5t64 -95.5q8 -29 8 -95v-40h-312q0 -65 13 -94q30 -66 114 -66z" />
<glyph unicode="&#x1ebc;" horiz-adv-x="500" d="M198 799q-20 0 -31.5 -14.5t-11.5 -38.5h-50q0 43 25 73t66 30q47 0 76 -41q12 -18 34 -18q17 0 29 13.5t12 38.5h50q0 -46 -28 -74t-65 -28q-47 0 -74 40q-12 19 -32 19zM75 667h359v-70h-287v-219h237v-70h-235v-238h286v-70h-360v667z" />
<glyph unicode="&#x1ebd;" d="M192 609q-20 0 -31.5 -14.5t-11.5 -38.5h-50q0 43 25 73t66 30q47 0 76 -41q12 -18 34 -18q17 0 29 13.5t12 38.5h50q0 -46 -28 -74t-65 -28q-47 0 -74 40q-12 19 -32 19zM123 282h244q0 44 -13 71q-30 66 -109 66t-109 -66q-13 -27 -13 -71zM250 58q76 0 128 35l35 -54 q-63 -45 -163 -45q-74 0 -122 34t-65 96q-8 29 -8 95v39q0 66 8 95q17 61 64 95.5t118 34.5t118 -34.5t64 -95.5q8 -29 8 -95v-40h-312q0 -65 13 -94q30 -66 114 -66z" />
<glyph unicode="&#x1eca;" horiz-adv-x="223" d="M111 -85q23 0 37 -14.5t14 -36.5t-14 -36.5t-37 -14.5t-37 14.5t-14 36.5t14 36.5t37 14.5zM149 667v-667h-74v667h74z" />
<glyph unicode="&#x1ecb;" horiz-adv-x="211" d="M106 -60q22 0 36.5 -14t14.5 -37t-14.5 -37t-36.5 -14t-36.5 14t-14.5 37t14.5 37t36.5 14zM105 644q21 0 34.5 -13t13.5 -34t-13.5 -34t-34.5 -13q-20 0 -33 13t-13 34t13 34t33 13zM71 477h70v-477h-70v477z" />
<glyph unicode="&#x1ecc;" horiz-adv-x="599" d="M299 -85q23 0 37 -14.5t14 -36.5t-14 -36.5t-37 -14.5t-37 14.5t-14 36.5t14 36.5t37 14.5zM535 438v-209q0 -50 -7 -79q-34 -156 -228 -156q-193 0 -228 155q-7 29 -7 80v209q0 51 7 80q35 155 228 155q194 0 228 -156q7 -29 7 -79zM461 438q0 50 -10 80q-28 85 -151 85 t-151 -85q-10 -31 -10 -80v-209q0 -49 10 -80q28 -85 151 -85t151 85q10 30 10 80v209z" />
<glyph unicode="&#x1ecd;" d="M244 -85q22 0 36.5 -14.5t14.5 -36.5t-14.5 -36.5t-36.5 -14.5t-36.5 14.5t-14.5 36.5t14.5 36.5t36.5 14.5zM435 258v-39q0 -66 -8 -95q-17 -61 -64 -95.5t-118 -34.5t-118 34.5t-64 95.5q-8 29 -8 95v39q0 66 8 95q17 61 64 95.5t118 34.5t118 -34.5t64 -95.5 q8 -29 8 -95zM365 219v39q0 66 -13 95q-29 64 -107 64t-107 -64q-13 -29 -13 -95v-39q0 -66 13 -95q29 -64 107 -64t107 64q13 29 13 95z" />
<glyph unicode="&#x1ee4;" horiz-adv-x="569" d="M282 -85q22 0 36.5 -14.5t14.5 -36.5t-14.5 -36.5t-36.5 -14.5t-36.5 14.5t-14.5 36.5t14.5 36.5t36.5 14.5zM500 667v-438q0 -50 -7 -79q-16 -76 -70 -116t-138 -40t-137.5 40t-70.5 115q-7 29 -7 80v438h74v-438q0 -49 10 -80q28 -85 131 -85t131 85q10 30 10 80v438 h74z" />
<glyph unicode="&#x1ee5;" horiz-adv-x="479" d="M239 -85q23 0 37 -14.5t14 -36.5t-14 -36.5t-37 -14.5t-37 14.5t-14 36.5t14 36.5t37 14.5zM130 477v-258q0 -66 11 -96q24 -63 99 -63t99 63q11 30 11 96v258h70v-258q0 -67 -7 -96q-15 -61 -59.5 -95t-113.5 -34t-113.5 34t-59.5 95q-7 29 -7 96v258h70z" />
<glyph unicode="&#x1ef2;" horiz-adv-x="540" d="M164 857h77l75 -121h-66zM35 667h81l154 -309l157 309h79l-199 -390v-277h-74v277z" />
<glyph unicode="&#x1ef3;" horiz-adv-x="476" d="M132 666h77l75 -121h-66zM202 0l-172 477h74l135 -389l134 389h74l-238 -662h-74z" />
<glyph unicode="&#x1ef8;" horiz-adv-x="540" d="M218 799q-20 0 -31.5 -14.5t-11.5 -38.5h-50q0 43 25 73t66 30q47 0 76 -41q12 -18 33 -18q17 0 29 13.5t12 38.5h51q0 -46 -28 -74t-65 -28q-47 0 -74 40q-12 19 -32 19zM35 667h81l154 -309l157 309h79l-199 -390v-277h-74v277z" />
<glyph unicode="&#x1ef9;" horiz-adv-x="476" d="M186 608q-20 0 -31.5 -14.5t-11.5 -38.5h-50q0 43 25 73t66 30q47 0 76 -41q12 -18 33 -18q17 0 29 13.5t12 38.5h51q0 -46 -28 -74t-65 -28q-47 0 -74 40q-12 19 -32 19zM202 0l-172 477h74l135 -389l134 389h74l-238 -662h-74z" />
<glyph unicode="&#x2013;" horiz-adv-x="429" d="M80 284h270v-66h-270v66z" />
<glyph unicode="&#x2014;" horiz-adv-x="539" d="M80 284h380v-66h-380v66z" />
<glyph unicode="&#x2018;" horiz-adv-x="201" d="M101 450q-21 0 -36 13t-15 38q0 20 9 45l45 121h45l-29 -118q32 -11 32 -48q0 -25 -15 -38t-36 -13z" />
<glyph unicode="&#x2019;" horiz-adv-x="201" d="M101 673q21 0 36 -13t15 -38q0 -20 -9 -46l-45 -120h-45l29 118q-32 11 -32 48q0 25 15 38t36 13z" />
<glyph unicode="&#x201a;" horiz-adv-x="201" d="M101 96q21 0 36 -13t15 -38q0 -19 -9 -45l-45 -121h-45l29 118q-32 11 -32 48q0 25 15 38t36 13z" />
<glyph unicode="&#x201c;" horiz-adv-x="361" d="M261 450q-21 0 -36 13t-15 38q0 20 9 45l45 121h45l-29 -118q32 -11 32 -48q0 -25 -15 -38t-36 -13zM101 450q-21 0 -36 13t-15 38q0 20 9 45l45 121h45l-29 -118q32 -11 32 -48q0 -25 -15 -38t-36 -13z" />
<glyph unicode="&#x201d;" horiz-adv-x="361" d="M101 673q21 0 36 -13t15 -38q0 -20 -9 -46l-45 -120h-45l29 118q-32 11 -32 48q0 25 15 38t36 13zM261 673q21 0 36 -13t15 -38q0 -20 -9 -46l-45 -120h-45l29 118q-32 11 -32 48q0 25 15 38t36 13z" />
<glyph unicode="&#x201e;" horiz-adv-x="361" d="M101 98q21 0 36 -13t15 -38q0 -21 -9 -47l-45 -119h-45l29 119q-32 11 -32 47q0 25 15 38t36 13zM261 98q21 0 36 -13t15 -38q0 -21 -9 -47l-45 -119h-45l29 119q-32 11 -32 47q0 25 15 38t36 13z" />
<glyph unicode="&#x2020;" horiz-adv-x="353" d="M142 667h70v-190h87v-60h-87v-602h-70v602h-87v60h87v190z" />
<glyph unicode="&#x2021;" horiz-adv-x="353" d="M142 667h70v-190h87v-60h-87v-357h87v-60h-87v-185h-70v185h-87v60h87v357h-87v60h87v190z" />
<glyph unicode="&#x2022;" horiz-adv-x="324" d="M163 333q36 0 59 -23t23 -60t-23 -60t-59 -23q-37 0 -60 23t-23 60t23 60t60 23z" />
<glyph unicode="&#x2026;" horiz-adv-x="541" d="M271 96q23 0 37 -14t14 -37t-14 -37t-37 -14t-37 14t-14 37t14 37t37 14zM441 96q23 0 37 -14t14 -37t-14 -37t-37 -14t-37 14t-14 37t14 37t37 14zM101 96q23 0 37 -14t14 -37t-14 -37t-37 -14t-37 14t-14 37t14 37t37 14z" />
<glyph unicode="&#x2030;" horiz-adv-x="1021" d="M496 667h74l-360 -667h-74zM531 297q49 0 85 -33.5t36 -96.5v-43q0 -63 -36 -96.5t-85 -33.5t-85 33.5t-36 96.5v43q0 63 36 96.5t85 33.5zM531 237q-23 0 -41 -17.5t-18 -50.5v-47q0 -33 18 -50.5t41 -17.5t41 17.5t18 50.5v47q0 33 -18 50.5t-41 17.5zM841 297 q49 0 85 -33.5t36 -96.5v-43q0 -63 -36 -96.5t-85 -33.5t-85 33.5t-36 96.5v43q0 63 36 96.5t85 33.5zM841 237q-23 0 -41 -17.5t-18 -50.5v-47q0 -33 18 -50.5t41 -17.5t41 17.5t18 50.5v47q0 33 -18 50.5t-41 17.5zM181 673q49 0 85 -33.5t36 -96.5v-43q0 -63 -36 -96.5 t-85 -33.5t-85 33.5t-36 96.5v43q0 63 36 96.5t85 33.5zM181 613q-23 0 -41 -17.5t-18 -50.5v-47q0 -33 18 -50.5t41 -17.5t41 17.5t18 50.5v47q0 33 -18 50.5t-41 17.5z" />
<glyph unicode="&#x2032;" horiz-adv-x="303" d="M174 667h80l-135 -211h-69z" />
<glyph unicode="&#x2033;" horiz-adv-x="449" d="M174 667h76l-135 -211h-65zM324 667h76l-135 -211h-65z" />
<glyph unicode="&#x2034;" horiz-adv-x="599" d="M174 667h76l-135 -211h-65zM324 667h76l-135 -211h-65zM474 667h76l-135 -211h-65z" />
<glyph unicode="&#x2039;" horiz-adv-x="378" d="M223 437h76l-159 -187l159 -187h-76l-143 164v46z" />
<glyph unicode="&#x203a;" horiz-adv-x="378" d="M156 437l143 -164v-46l-143 -164h-76l159 187l-159 187h76z" />
<glyph unicode="&#x2044;" horiz-adv-x="423" d="M360 667h64l-360 -667h-64z" />
<glyph unicode="&#x20ac;" horiz-adv-x="599" d="M350 673q121 0 185 -71l-48 -52q-49 53 -137 53q-113 0 -141 -85q-10 -31 -10 -80v-14h261l-20 -56h-241v-69h221l-20 -56h-201v-14q0 -49 10 -80q28 -85 141 -85q92 0 142 53l48 -52q-66 -71 -190 -71q-183 0 -218 155q-7 29 -7 80v14h-65l20 56h45v69h-65l20 56h45v14 q0 51 7 80q35 155 218 155z" />
<glyph unicode="&#x20b9;" horiz-adv-x="564" d="M196 258l212 -258h-87l-209 258h-24v67h109q52 0 88.5 32.5t40.5 92.5h-256l30 67h218q-14 40 -46.5 61.5t-74.5 21.5h-127l30 67h400l-30 -67h-126q34 -34 46 -83h110l-30 -67h-73q-4 -93 -61 -142.5t-140 -49.5z" />
<glyph unicode="&#x20ba;" horiz-adv-x="513" d="M449 308v-80q0 -117 -65.5 -172.5t-169.5 -55.5h-74v267l-90 -45v61l90 45v79l-90 -45v61l90 45v199h74v-162l136 68v-61l-136 -68v-79l136 68v-61l-136 -68v-234q161 0 161 158v80h74z" />
<glyph unicode="&#x2122;" horiz-adv-x="667" d="M325 667h42l99 -194l100 194h42v-333h-46v240l-79 -158h-33l-79 157v-239h-46v333zM60 667h225v-45h-89v-288h-47v288h-89v45z" />
<glyph unicode="&#x2126;" horiz-adv-x="599" d="M250 0h-185v64h77q-77 75 -77 238v144q0 117 65.5 172t169.5 55t169.5 -55t65.5 -172v-144q0 -163 -77 -238h77v-64h-185v64q42 0 76.5 64t34.5 174v144q0 157 -161 157t-161 -157v-144q0 -110 34.5 -174t76.5 -64v-64z" />
<glyph unicode="&#x2190;" horiz-adv-x="559" d="M173 377h66l-85 -99h326v-56h-326l85 -99h-66l-93 107v40z" />
<glyph unicode="&#x2191;" horiz-adv-x="413" d="M334 357v-66l-99 85v-326h-56v326l-99 -85v66l107 93h40z" />
<glyph unicode="&#x2192;" horiz-adv-x="559" d="M387 377l93 -107v-40l-93 -107h-66l85 99h-326v56h326l-85 99h66z" />
<glyph unicode="&#x2193;" horiz-adv-x="413" d="M334 143l-107 -93h-40l-107 93v66l99 -85v326h56v-326l99 85v-66z" />
<glyph unicode="&#x2194;" horiz-adv-x="639" d="M173 377h66l-85 -99h332l-85 99h66l93 -107v-40l-93 -107h-66l85 99h-332l85 -99h-66l-93 107v40z" />
<glyph unicode="&#x2195;" horiz-adv-x="413" d="M334 397v-66l-99 85v-332l99 85v-66l-107 -93h-40l-107 93v66l99 -85v332l-99 -85v66l107 93h40z" />
<glyph unicode="&#x2196;" horiz-adv-x="485" d="M259 415l47 -46l-130 -10l230 -231l-39 -39l-231 230l-10 -130l-46 47l9 141l29 29z" />
<glyph unicode="&#x2197;" horiz-adv-x="485" d="M227 415l141 -9l29 -29l9 -141l-46 -47l-10 130l-231 -230l-39 39l230 231l-130 10z" />
<glyph unicode="&#x2198;" horiz-adv-x="485" d="M227 89l-47 46l130 10l-230 231l39 39l231 -230l10 130l46 -47l-9 -141l-29 -29z" />
<glyph unicode="&#x2199;" horiz-adv-x="485" d="M259 89l-141 9l-29 29l-9 141l46 47l10 -130l231 230l39 -39l-230 -231l130 -10z" />
<glyph unicode="&#x2202;" horiz-adv-x="484" d="M355 432v16q0 66 -13 95q-29 64 -107 64q-77 0 -127 -34l-36 55q63 45 163 45q71 0 118 -34.5t64 -95.5q8 -29 8 -95v-229q0 -66 -8 -95q-17 -62 -62 -96t-115 -34t-115 34t-62 96q-8 29 -8 95v39q0 66 8 95q16 61 60 95.5t107 34.5q83 0 125 -51zM125 219q0 -66 13 -95 q29 -64 102 -64t102 64q13 29 13 95v39q0 68 -12 96q-27 63 -103 63q-77 0 -104 -64q-11 -27 -11 -95v-39z" />
<glyph unicode="&#x2206;" horiz-adv-x="648" d="M514 68l-189 505l-189 -505h378zM35 0l258 667h64l257 -667h-579z" />
<glyph unicode="&#x220f;" horiz-adv-x="589" d="M75 667h440v-667h-74v597h-292v-597h-74v667z" />
<glyph unicode="&#x2211;" horiz-adv-x="500" d="M296 328l-141 -258h285v-70h-380v40l170 302l-170 285v40h379v-70h-284l141 -239v-30z" />
<glyph unicode="&#x2212;" horiz-adv-x="519" d="M80 279h360v-56h-360v56z" />
<glyph unicode="&#x221a;" horiz-adv-x="506" d="M35 278h65l145 -220l170 609h57l-188 -667h-61z" />
<glyph unicode="&#x221e;" horiz-adv-x="750" d="M526 366q-59 0 -122 -111q63 -111 122 -111q37 0 60.5 32.5t23.5 78.5t-23.5 78.5t-60.5 32.5zM234 424q48 0 79 -28t63 -84q33 55 67.5 83.5t82.5 28.5q65 0 104.5 -48.5t39.5 -120.5t-39.5 -120.5t-104.5 -48.5q-48 0 -82.5 28.5t-67.5 83.5q-32 -56 -63 -84t-79 -28 q-66 0 -110 49t-44 120t44 120t110 49zM234 366q-38 0 -66 -33t-28 -78t28 -78t66 -33q34 0 59.5 28.5t52.5 82.5q-27 54 -52.5 82.5t-59.5 28.5z" />
<glyph unicode="&#x222b;" horiz-adv-x="349" d="M205 -54q0 -64 -31.5 -97.5t-78.5 -33.5h-60v57h60q20 0 35 19.5t15 54.5v581q0 63 31.5 96.5t78.5 33.5h60v-57h-60q-20 0 -35 -19.5t-15 -53.5v-581z" />
<glyph unicode="&#x2248;" horiz-adv-x="519" d="M100 283l-32 41q55 54 112 54q46 0 94 -35q38 -30 68 -30q34 0 78 44l32 -42q-56 -56 -112 -56q-45 0 -94 38q-37 27 -66 27q-38 0 -80 -41zM100 143l-32 41q55 54 112 54q46 0 94 -35q38 -30 68 -30q34 0 78 44l32 -42q-56 -56 -112 -56q-45 0 -94 38q-37 27 -66 27 q-38 0 -80 -41z" />
<glyph unicode="&#x2260;" horiz-adv-x="519" d="M359 444h62l-66 -98h85v-52h-120l-58 -86h178v-52h-213l-66 -98h-62l66 98h-85v52h120l58 86h-178v52h213z" />
<glyph unicode="&#x2264;" horiz-adv-x="519" d="M146 323l294 -77v-56l-360 100v66l360 100v-56zM80 151h360v-56h-360v56z" />
<glyph unicode="&#x2265;" horiz-adv-x="519" d="M374 323l-294 77v56l360 -100v-66l-360 -100v56zM440 151v-56h-360v56h360z" />
<glyph unicode="&#x25ca;" horiz-adv-x="549" d="M60 334l215 335l215 -335l-215 -334zM134 334l141 -224l141 224l-141 225z" />
<glyph unicode="&#x25fc;" horiz-adv-x="475" d="M0 475h475v-475h-475v475z" />
<glyph unicode="&#xfb01;" horiz-adv-x="501" d="M385 634q21 0 34.5 -13t13.5 -34t-13.5 -34t-34.5 -13q-20 0 -33 13t-13 34t13 34t33 13zM45 477h60v60q0 63 35.5 96.5t84.5 33.5h60v-62h-60q-21 0 -35.5 -17t-14.5 -51v-60h246v-477h-70v416h-176v-416h-70v416h-60v61z" />
<glyph unicode="&#xfb02;" horiz-adv-x="495" d="M45 477h60v60q0 63 35.5 96.5t84.5 33.5h196v-667h-70v605h-126q-21 0 -35.5 -17t-14.5 -51v-60h100v-61h-100v-416h-70v416h-60v61z" />
</font>
</defs>
</svg>
